SplineFontDB: 3.0
FontName: Ocr-Pbi-LibreObjet
FullName: Untitled1
FamilyName: Ocr-Pbi
Weight: Book
Copyright: Copyright (c) 2016, antoine
Version: 001.000
ItalicAngle: 0
UnderlinePosition: -400
UnderlineWidth: 50
Ascent: 800
Descent: 200
InvalidEm: 0
sfntRevision: 0x00010000
LayerCount: 2
Layer: 0 1 "Arri+AOgA-re" 1
Layer: 1 1 "Avant" 0
XUID: [1021 976 309835248 2958629]
StyleMap: 0x0000
FSType: 0
OS2Version: 4
OS2_WeightWidthSlopeOnly: 0
OS2_UseTypoMetrics: 1
CreationTime: 1465821797
ModificationTime: 1481481806
PfmFamily: 17
TTFWeight: 400
TTFWidth: 5
LineGap: 90
VLineGap: 0
Panose: 2 0 5 3 0 0 0 0 0 0
OS2TypoAscent: 800
OS2TypoAOffset: 0
OS2TypoDescent: -200
OS2TypoDOffset: 0
OS2TypoLinegap: 90
OS2WinAscent: 977
OS2WinAOffset: 0
OS2WinDescent: 200
OS2WinDOffset: 0
HheadAscent: 977
HheadAOffset: 0
HheadDescent: -200
HheadDOffset: 0
OS2SubXSize: 650
OS2SubYSize: 700
OS2SubXOff: 0
OS2SubYOff: 140
OS2SupXSize: 650
OS2SupYSize: 700
OS2SupXOff: 0
OS2SupYOff: 480
OS2StrikeYSize: 49
OS2StrikeYPos: 258
OS2CapHeight: 701
OS2XHeight: 535
OS2Vendor: 'PfEd'
OS2CodePages: 00000001.00000000
OS2UnicodeRanges: 80000007.00000000.00000000.00000000
DEI: 91125
ShortTable: cvt  2
  33
  633
EndShort
ShortTable: maxp 16
  1
  0
  148
  113
  10
  107
  6
  2
  0
  1
  1
  0
  64
  0
  2
  1
EndShort
LangName: 1033 "" "" "" "FontForge 2.0 : Untitled1 : 21-11-2016"
GaspTable: 1 65535 2 0
Encoding: Original
UnicodeInterp: none
NameList: AGL For New Fonts
DisplaySize: -48
AntiAlias: 1
FitToEm: 0
WinInfo: 0 25 10
BeginChars: 148 147

StartChar: .notdef
Encoding: 0 -1 0
Width: 364
Flags: W
LayerCount: 2
Fore
SplineSet
66 33 m 1,0,-1
 265 33 l 1,1,-1
 265 633 l 1,2,-1
 66 633 l 1,3,-1
 66 33 l 1,0,-1
33 0 m 1,4,-1
 33 666 l 1,5,-1
 298 666 l 1,6,-1
 298 0 l 1,7,-1
 33 0 l 1,4,-1
EndSplineSet
Validated: 1
EndChar

StartChar: exclam
Encoding: 4 33 4
Width: 371
GlyphClass: 2
Flags: W
LayerCount: 2
Fore
SplineSet
150 241 m 1,0,-1
 150 663 l 1,1,-1
 189 702 l 1,2,-1
 221 671 l 1,3,-1
 221 249 l 1,4,-1
 182 210 l 1,5,-1
 150 241 l 1,0,-1
170 10 m 1,6,-1
 139 41 l 1,7,-1
 139 74 l 1,8,-1
 178 114 l 1,9,-1
 201 114 l 1,10,-1
 232 82 l 1,11,-1
 232 49 l 1,12,-1
 193 10 l 1,13,-1
 170 10 l 1,6,-1
EndSplineSet
Validated: 1
EndChar

StartChar: numbersign
Encoding: 5 35 5
Width: 612
GlyphClass: 2
Flags: W
LayerCount: 2
Fore
SplineSet
478 535 m 1,0,-1
 518 535 l 1,1,-1
 549 504 l 1,2,-1
 510 465 l 1,3,-1
 462 465 l 1,4,-1
 427 308 l 1,5,-1
 490 308 l 1,6,-1
 521 277 l 1,7,-1
 482 237 l 1,8,-1
 411 237 l 1,9,-1
 369 49 l 1,10,-1
 330 10 l 1,11,-1
 298 41 l 1,12,-1
 342 237 l 1,13,-1
 203 237 l 1,14,-1
 161 49 l 1,15,-1
 121 10 l 1,16,-1
 90 41 l 1,17,-1
 134 237 l 1,18,-1
 94 237 l 1,19,-1
 62 269 l 1,20,-1
 102 308 l 1,21,-1
 150 308 l 1,22,-1
 186 465 l 1,23,-1
 121 465 l 1,24,-1
 90 496 l 1,25,-1
 129 535 l 1,26,-1
 202 535 l 1,27,-1
 243 718 l 1,28,-1
 282 757 l 1,29,-1
 313 726 l 1,30,-1
 270 535 l 1,31,-1
 410 535 l 1,32,-1
 451 718 l 1,33,-1
 490 757 l 1,34,-1
 521 726 l 1,35,-1
 478 535 l 1,0,-1
394 465 m 1,36,-1
 254 465 l 1,37,-1
 219 308 l 1,38,-1
 358 308 l 1,39,-1
 394 465 l 1,36,-1
EndSplineSet
Validated: 1
EndChar

StartChar: percent
Encoding: 6 37 6
Width: 612
GlyphClass: 2
Flags: W
LayerCount: 2
Fore
SplineSet
76 41 m 1,0,-1
 465 718 l 1,1,-1
 504 757 l 1,2,-1
 535 726 l 1,3,-1
 147 49 l 1,4,-1
 108 10 l 1,5,-1
 76 41 l 1,0,-1
535 132 m 0,6,7
 535 94 535 94 520 72 c 0,8,9
 516 67 516 67 512 62 c 2,10,-1
 473 23 l 2,11,12
 453 3 453 3 426.5 3 c 128,-1,13
 400 3 400 3 381 23 c 2,14,-1
 349 54 l 2,15,16
 345 59 345 59 341 64 c 0,17,18
 326 86 326 86 326 124 c 128,-1,19
 326 162 326 162 341 184 c 0,20,21
 345 189 345 189 349 194 c 2,22,-1
 389 233 l 2,23,24
 408 252 408 252 434.5 252 c 128,-1,25
 461 252 461 252 480 233 c 2,26,-1
 512 202 l 2,27,28
 516 197 516 197 520 192 c 0,29,30
 535 169 535 169 535 132 c 0,6,7
457 78 m 1,31,32
 465 97 465 97 465 124 c 0,33,34
 465 155 465 155 454 176 c 1,35,36
 441 182 441 182 426 182 c 0,37,38
 415 182 415 182 405 178 c 1,39,40
 397 159 397 159 397 132 c 0,41,42
 397 100 397 100 407 80 c 1,43,44
 420 74 420 74 434 74 c 0,45,46
 446 74 446 74 457 78 c 1,31,32
382 163 m 1,47,48
 382 163 382 163 381 162 c 2,49,-1
 382 163 l 1,47,48
286 643 m 0,50,51
 286 606 286 606 270 583 c 0,52,53
 267 578 267 578 262 573 c 2,54,-1
 223 534 l 2,55,56
 203 515 203 515 176.5 515 c 128,-1,57
 150 515 150 515 131 534 c 2,58,-1
 100 566 l 2,59,60
 95 570 95 570 91 575 c 0,61,62
 76 598 76 598 76 635.5 c 128,-1,63
 76 673 76 673 91 695 c 0,64,65
 95 701 95 701 100 705 c 2,66,-1
 139 744 l 2,67,68
 158 764 158 764 184.5 764 c 128,-1,69
 211 764 211 764 231 744 c 2,70,-1
 262 713 l 2,71,72
 267 708 267 708 270 703 c 0,73,74
 286 681 286 681 286 643 c 0,50,51
199 574 m 2,75,-1
 191 566 l 2,76,77
 195 570 195 570 199 574 c 2,75,-1
229 604 m 2,78,79
 230 604 230 604 231 605 c 2,80,-1
 229 604 l 2,78,79
207 589 m 1,81,82
 215 608 215 608 215 635 c 0,83,84
 215 666 215 666 205 687 c 1,85,86
 192 693 192 693 176 693 c 0,87,88
 165 693 165 693 155 689 c 1,89,90
 147 670 147 670 147 644 c 0,91,92
 147 612 147 612 157 591 c 1,93,94
 170 585 170 585 184 585 c 0,95,96
 197 585 197 585 207 589 c 1,81,82
140 604 m 1,97,-1
 139 605 l 2,98,99
 140 604 140 604 140 604 c 1,97,-1
196 700 m 2,100,101
 194 703 194 703 191 705 c 2,102,-1
 196 700 l 2,100,101
EndSplineSet
Validated: 9
EndChar

StartChar: parenleft
Encoding: 7 40 7
Width: 334
GlyphClass: 2
Flags: W
LayerCount: 2
Fore
SplineSet
211 125 m 0,0,1
 248 94 248 94 296 80 c 1,2,-1
 327 49 l 1,3,-1
 288 10 l 1,4,5
 229 26 229 26 186 70 c 2,6,-1
 155 101 l 2,7,8
 132 124 132 124 116 152 c 0,9,10
 102 177 102 177 93.5 204.5 c 128,-1,11
 85 232 85 232 81.5 264 c 128,-1,12
 78 296 78 296 77 319.5 c 128,-1,13
 76 343 76 343 76 380 c 0,14,15
 76 430 76 430 77.5 460.5 c 128,-1,16
 79 491 79 491 88.5 533 c 128,-1,17
 98 575 98 575 116 607 c 0,18,19
 132 635 132 635 155 658 c 2,20,-1
 194 698 l 2,21,22
 237 741 237 741 296 757 c 1,23,-1
 327 726 l 1,24,-1
 288 687 l 1,25,26
 243 674 243 674 207 646 c 1,27,28
 196 631 196 631 187 615 c 0,29,30
 173 591 173 591 164.5 563.5 c 128,-1,31
 156 536 156 536 152.5 503.5 c 128,-1,32
 149 471 149 471 148 448 c 128,-1,33
 147 425 147 425 147 388 c 0,34,35
 147 337 147 337 148.5 306.5 c 128,-1,36
 150 276 150 276 159.5 234 c 128,-1,37
 169 192 169 192 187 160 c 0,38,39
 197 141 197 141 211 125 c 0,0,1
EndSplineSet
Validated: 1
EndChar

StartChar: parenright
Encoding: 8 41 8
Width: 334
GlyphClass: 2
Flags: W
LayerCount: 2
Fore
SplineSet
123 642 m 0,0,1
 86 673 86 673 38 687 c 1,2,-1
 7 718 l 1,3,-1
 46 757 l 1,4,5
 105 741 105 741 148 698 c 2,6,-1
 179 666 l 2,7,8
 202 643 202 643 218 615 c 0,9,10
 236 583 236 583 245.5 541 c 128,-1,11
 255 499 255 499 256.5 468.5 c 128,-1,12
 258 438 258 438 258 387.5 c 128,-1,13
 258 337 258 337 256.5 306.5 c 128,-1,14
 255 276 255 276 245.5 234 c 128,-1,15
 236 192 236 192 218 160 c 0,16,17
 202 132 202 132 179 109 c 2,18,-1
 140 70 l 2,19,20
 97 26 97 26 38 10 c 1,21,-1
 7 41 l 1,22,-1
 46 80 l 1,23,24
 91 93 91 93 127 121 c 1,25,26
 138 136 138 136 147 152 c 0,27,28
 165 184 165 184 174.5 226 c 128,-1,29
 184 268 184 268 185.5 299 c 128,-1,30
 187 330 187 330 187 380 c 128,-1,31
 187 430 187 430 185.5 460.5 c 128,-1,32
 184 491 184 491 174.5 533 c 128,-1,33
 165 575 165 575 147 607 c 0,34,35
 137 626 137 626 123 642 c 0,0,1
EndSplineSet
Validated: 1
EndChar

StartChar: asterisk
Encoding: 9 42 9
Width: 612
GlyphClass: 2
Flags: W
LayerCount: 2
Fore
SplineSet
341 442 m 1,0,-1
 504 491 l 1,1,-1
 535 460 l 1,2,-1
 496 420 l 1,3,-1
 357 378 l 1,4,-1
 469 221 l 1,5,-1
 429 182 l 1,6,-1
 398 213 l 1,7,-1
 303 347 l 1,8,-1
 213 221 l 1,9,-1
 174 182 l 1,10,-1
 143 213 l 1,11,-1
 257 375 l 1,12,-1
 108 420 l 1,13,-1
 76 452 l 1,14,-1
 115 491 l 1,15,-1
 270 445 l 1,16,-1
 270 602 l 1,17,-1
 310 641 l 1,18,-1
 341 610 l 1,19,-1
 341 442 l 1,0,-1
EndSplineSet
Validated: 1
EndChar

StartChar: plus
Encoding: 10 43 10
Width: 612
GlyphClass: 2
Flags: W
LayerCount: 2
Fore
SplineSet
270 348 m 1,0,-1
 108 348 l 1,1,-1
 76 380 l 1,2,-1
 115 419 l 1,3,-1
 270 419 l 1,4,-1
 270 602 l 1,5,-1
 310 641 l 1,6,-1
 341 610 l 1,7,-1
 341 419 l 1,8,-1
 504 419 l 1,9,-1
 535 388 l 1,10,-1
 496 348 l 1,11,-1
 341 348 l 1,12,-1
 341 165 l 1,13,-1
 302 126 l 1,14,-1
 270 158 l 1,15,-1
 270 348 l 1,0,-1
EndSplineSet
Validated: 1
EndChar

StartChar: comma
Encoding: 11 44 11
Width: 612
GlyphClass: 2
Flags: W
LayerCount: 2
Fore
SplineSet
316 126 m 1,0,-1
 218 -31 l 1,1,-1
 398 111 l 1,2,-1
 398 126 l 1,3,-1
 316 126 l 1,0,-1
135 -137 m 1,4,-1
 104 -106 l 1,5,-1
 270 158 l 1,6,-1
 310 197 l 1,7,-1
 437 197 l 1,8,-1
 469 165 l 1,9,-1
 469 110 l 1,10,-1
 429 71 l 1,11,-1
 163 -137 l 1,12,-1
 135 -137 l 1,4,-1
EndSplineSet
Validated: 1
EndChar

StartChar: hyphen
Encoding: 12 45 12
Width: 612
GlyphClass: 2
Flags: W
LayerCount: 2
Fore
SplineSet
115 419 m 1,0,-1
 504 419 l 1,1,-1
 535 388 l 1,2,-1
 496 348 l 1,3,-1
 108 348 l 1,4,-1
 76 380 l 1,5,-1
 115 419 l 1,0,-1
EndSplineSet
Validated: 1
EndChar

StartChar: period
Encoding: 13 46 13
Width: 501
GlyphClass: 2
Flags: W
LayerCount: 2
Fore
SplineSet
277 112 m 1,0,-1
 277 80 l 1,1,-1
 279 80 l 1,2,-1
 279 112 l 1,3,-1
 277 112 l 1,0,-1
182 10 m 1,4,-1
 151 41 l 1,5,-1
 151 144 l 1,6,-1
 190 183 l 1,7,-1
 246 183 l 1,8,-1
 318 183 l 1,9,-1
 373 183 l 1,10,-1
 405 152 l 1,11,-1
 405 49 l 1,12,-1
 366 10 l 1,13,-1
 310 10 l 1,14,-1
 238 10 l 1,15,-1
 182 10 l 1,4,-1
EndSplineSet
Validated: 1
EndChar

StartChar: slash
Encoding: 14 47 14
Width: 612
GlyphClass: 2
Flags: W
LayerCount: 2
Fore
SplineSet
132 41 m 1,0,-1
 409 718 l 1,1,-1
 448 757 l 1,2,-1
 480 726 l 1,3,-1
 202 49 l 1,4,-1
 163 10 l 1,5,-1
 132 41 l 1,0,-1
EndSplineSet
Validated: 1
EndChar

StartChar: zero
Encoding: 15 48 15
Width: 612
GlyphClass: 2
Flags: W
LayerCount: 2
Fore
SplineSet
302 3 m 128,-1,1
 243 3 243 3 205 26 c 0,2,3
 190 35 190 35 178 48 c 2,4,-1
 146 79 l 2,5,6
 115 110 115 110 98 163 c 0,7,8
 87 196 87 196 82 238 c 128,-1,9
 77 280 77 280 76.5 302.5 c 128,-1,10
 76 325 76 325 76 379.5 c 128,-1,11
 76 434 76 434 76.5 456.5 c 128,-1,12
 77 479 77 479 82 521.5 c 128,-1,13
 87 564 87 564 98 596 c 0,14,15
 115 649 115 649 146 680 c 2,16,-1
 186 720 l 2,17,18
 198 732 198 732 213 741 c 0,19,20
 251 764 251 764 310 764 c 128,-1,21
 369 764 369 764 407 741 c 0,22,23
 421 732 421 732 434 720 c 2,24,-1
 465 688 l 2,25,26
 496 657 496 657 514 604 c 0,27,28
 525 572 525 572 530 529.5 c 128,-1,29
 535 487 535 487 535 464.5 c 128,-1,30
 535 442 535 442 535 387.5 c 128,-1,31
 535 333 535 333 535 310.5 c 128,-1,32
 535 288 535 288 530 245.5 c 128,-1,33
 525 203 525 203 514 171 c 0,34,35
 496 118 496 118 465 87 c 2,36,-1
 426 48 l 2,37,38
 413 35 413 35 399 26 c 0,39,0
 361 3 361 3 302 3 c 128,-1,1
202 104 m 0,40,41
 207 100 207 100 213 97 c 0,42,43
 251 74 251 74 310 74 c 128,-1,44
 369 74 369 74 407 97 c 0,45,46
 410 99 410 99 414 102 c 0,47,48
 432 127 432 127 443 163 c 0,49,50
 451 188 451 188 456 213 c 128,-1,51
 461 238 461 238 462.5 273 c 128,-1,52
 464 308 464 308 464.5 322 c 128,-1,53
 465 336 465 336 465 380 c 0,54,55
 465 434 465 434 464.5 456.5 c 128,-1,56
 464 479 464 479 459 521.5 c 128,-1,57
 454 564 454 564 443 596 c 0,58,59
 431 635 431 635 410 662 c 0,60,61
 405 666 405 666 399 670 c 0,62,63
 361 693 361 693 302 693 c 128,-1,64
 243 693 243 693 205 670 c 0,65,66
 202 668 202 668 198 666 c 0,67,68
 180 640 180 640 168 604 c 0,69,70
 158 572 158 572 153 529.5 c 128,-1,71
 148 487 148 487 147.5 464.5 c 128,-1,72
 147 442 147 442 147 387.5 c 128,-1,73
 147 333 147 333 147.5 310.5 c 128,-1,74
 148 288 148 288 153 245.5 c 128,-1,75
 158 203 158 203 168 171 c 0,76,77
 181 132 181 132 202 104 c 0,40,41
EndSplineSet
Validated: 1
EndChar

StartChar: one
Encoding: 16 49 16
Width: 612
GlyphClass: 2
Flags: W
LayerCount: 2
Fore
SplineSet
313 726 m 1,0,-1
 177 576 l 1,1,-1
 138 537 l 1,2,-1
 107 568 l 1,3,-1
 243 718 l 1,4,-1
 282 757 l 1,5,-1
 313 726 l 1,0,-1
312 41 m 1,6,-1
 312 718 l 1,7,-1
 351 757 l 1,8,-1
 383 726 l 1,9,-1
 383 49 l 1,10,-1
 343 10 l 1,11,-1
 312 41 l 1,6,-1
EndSplineSet
Validated: 1
EndChar

StartChar: two
Encoding: 17 50 17
Width: 612
GlyphClass: 2
Flags: W
LayerCount: 2
Fore
SplineSet
477 10 m 1,0,-1
 135 10 l 1,1,-1
 104 41 l 1,2,3
 104 97 104 97 112 130 c 0,4,5
 129 196 129 196 190 257 c 2,6,-1
 229 296 l 2,7,8
 260 327 260 327 310 363 c 0,9,10
 368 406 368 406 401 435 c 1,11,12
 437 477 437 477 448 518 c 0,13,14
 459 560 459 560 450 602 c 0,15,16
 442 635 442 635 422 661 c 1,17,18
 373 697 373 697 302 693 c 0,19,20
 237 690 237 690 190 654 c 1,21,22
 163 616 163 616 163 568 c 1,23,-1
 124 529 l 1,24,-1
 93 560 l 1,25,26
 93 622 93 622 139 668 c 2,27,-1
 178 707 l 2,28,29
 230 759 230 759 310 764 c 0,30,31
 395 769 395 769 447 716 c 2,32,-1
 479 684 l 2,33,34
 480 683 480 683 481 682 c 0,35,36
 510 652 510 652 520 609.5 c 128,-1,37
 530 567 530 567 519 526 c 0,38,39
 505 475 505 475 453 423 c 2,40,-1
 414 383 l 2,41,42
 380 350 380 350 302 293 c 0,43,44
 268 268 268 268 243 246 c 1,45,46
 197 194 197 194 183 138 c 0,47,48
 177 115 177 115 176 80 c 1,49,-1
 484 80 l 1,50,-1
 516 49 l 1,51,-1
 477 10 l 1,0,-1
206 673 m 2,52,-1
 209 676 l 2,53,54
 207 674 207 674 206 673 c 2,52,-1
436 649 m 2,55,-1
 440 645 l 2,56,57
 438 647 438 647 436 649 c 2,55,-1
EndSplineSet
Validated: 41
EndChar

StartChar: three
Encoding: 18 51 18
Width: 612
GlyphClass: 2
Flags: W
LayerCount: 2
Fore
SplineSet
463 687 m 1,0,-1
 110 687 l 1,1,-1
 79 718 l 1,2,-1
 118 757 l 1,3,-1
 471 757 l 1,4,-1
 502 726 l 1,5,-1
 463 687 l 1,0,-1
310 480 m 1,6,7
 406 480 406 480 463 423 c 2,8,-1
 495 391 l 2,9,10
 499 387 499 387 503 382 c 0,11,12
 549 329 549 329 549 245.5 c 128,-1,13
 549 162 549 162 503 109 c 0,14,15
 499 104 499 104 495 100 c 2,16,-1
 456 61 l 2,17,18
 398 3 398 3 302 3 c 0,19,20
 199 3 199 3 127 76 c 2,21,-1
 96 107 l 2,22,23
 89 114 89 114 83 121 c 1,24,-1
 122 160 l 1,25,-1
 149 133 l 1,26,27
 217 74 217 74 310 74 c 0,28,29
 390 74 390 74 443 114 c 1,30,31
 479 164 479 164 479 238 c 0,32,33
 479 316 479 316 439 367 c 1,34,35
 384 409 384 409 302 409 c 0,36,37
 259 409 259 409 219 398 c 1,38,-1
 187 430 l 1,39,-1
 226 469 l 1,40,-1
 471 688 l 1,41,-1
 502 657 l 1,42,-1
 463 617 l 1,43,-1
 310 480 l 1,6,7
454 354 m 2,44,-1
 456 352 l 2,45,46
 455 353 455 353 454 354 c 2,44,-1
432 375 m 2,47,48
 428 380 428 380 424 383 c 2,49,-1
 432 375 l 2,47,48
EndSplineSet
Validated: 9
EndChar

StartChar: four
Encoding: 19 52 19
Width: 612
GlyphClass: 2
Flags: W
LayerCount: 2
Fore
SplineSet
358 726 m 1,0,-1
 147 304 l 1,1,-1
 108 265 l 1,2,-1
 76 296 l 1,3,-1
 287 718 l 1,4,-1
 326 757 l 1,5,-1
 358 726 l 1,0,-1
365 196 m 1,6,-1
 108 196 l 1,7,-1
 76 227 l 1,8,-1
 115 266 l 1,9,-1
 365 266 l 1,10,-1
 365 388 l 1,11,-1
 404 427 l 1,12,-1
 435 396 l 1,13,-1
 435 266 l 1,14,-1
 504 266 l 1,15,-1
 535 235 l 1,16,-1
 496 196 l 1,17,-1
 435 196 l 1,18,-1
 435 49 l 1,19,-1
 396 10 l 1,20,-1
 365 41 l 1,21,-1
 365 196 l 1,6,-1
EndSplineSet
Validated: 1
EndChar

StartChar: five
Encoding: 20 53 20
Width: 612
GlyphClass: 2
Flags: W
LayerCount: 2
Fore
SplineSet
143 80 m 1,0,1
 191 71 191 71 237 76.5 c 128,-1,2
 283 82 283 82 326 103 c 0,3,4
 355 118 355 118 381 139 c 1,5,6
 433 202 433 202 437 280 c 0,7,8
 441 347 441 347 409 390 c 1,9,10
 370 418 370 418 302 429 c 0,11,12
 227 441 227 441 152 434 c 1,13,-1
 121 466 l 1,14,-1
 134 718 l 1,15,-1
 174 757 l 1,16,-1
 460 757 l 1,17,-1
 491 726 l 1,18,-1
 452 687 l 1,19,-1
 203 687 l 1,20,-1
 193 507 l 1,21,22
 251 508 251 508 310 499 c 0,23,24
 394 486 394 486 434 446 c 2,25,-1
 465 415 l 2,26,27
 468 412 468 412 471 409 c 0,28,29
 512 363 512 363 508 288 c 0,30,31
 503 197 503 197 434 127 c 0,32,33
 433 127 433 127 433 126 c 2,34,-1
 394 87 l 2,35,36
 343 36 343 36 274.5 15.5 c 128,-1,37
 206 -5 206 -5 135 10 c 1,38,-1
 104 41 l 1,39,-1
 143 80 l 1,0,1
425 377 m 2,40,-1
 426 376 l 1,41,42
 426 376 426 376 425 377 c 2,40,-1
EndSplineSet
Validated: 33
EndChar

StartChar: six
Encoding: 21 54 21
Width: 612
GlyphClass: 2
Flags: W
LayerCount: 2
Fore
SplineSet
84 317 m 1,0,1
 98 387 98 387 137 463 c 0,2,3
 196 576 196 576 286 667 c 2,4,-1
 325 706 l 2,5,6
 352 733 352 733 382 757 c 1,7,-1
 413 726 l 1,8,-1
 374 687 l 2,9,10
 355 671 355 671 337 655 c 0,11,12
 260 571 260 571 208 471 c 0,13,14
 203 461 203 461 198 451 c 1,15,16
 245 482 245 482 310 483 c 0,17,18
 395 483 395 483 450 429 c 2,19,-1
 481 398 l 2,20,21
 487 392 487 392 492 385 c 0,22,23
 535 333 535 333 535 249 c 0,24,25
 536 164 536 164 492 110 c 0,26,27
 487 103 487 103 481 97 c 2,28,-1
 441 58 l 2,29,30
 432 49 432 49 422 41 c 128,-1,31
 412 33 412 33 401 27.5 c 128,-1,32
 390 22 390 22 378 17 c 128,-1,33
 366 12 366 12 353.5 9 c 128,-1,34
 341 6 341 6 328 4.5 c 128,-1,35
 315 3 315 3 302 3 c 0,36,37
 217 3 217 3 162 58 c 2,38,-1
 131 89 l 2,39,40
 125 95 125 95 119 102 c 0,41,42
 77 155 77 155 76 241 c 0,43,44
 72 281 72 281 84 317 c 1,0,1
181 374 m 1,45,46
 163 350 163 350 154 322 c 0,47,48
 147 284 147 284 147 249 c 0,49,50
 147 165 147 165 188 112 c 1,51,52
 239 74 239 74 310 74 c 0,53,54
 379 74 379 74 428 110 c 1,55,56
 465 162 465 162 465 241 c 0,57,58
 464 322 464 322 425 373 c 1,59,60
 374 413 374 413 302 412 c 0,61,62
 231 411 231 411 181 374 c 1,45,46
172 126 m 2,63,-1
 170 128 l 2,64,65
 171 127 171 127 172 126 c 2,63,-1
195 104 m 2,66,67
 198 100 198 100 202 97 c 2,68,-1
 195 104 l 2,66,67
EndSplineSet
Validated: 33
EndChar

StartChar: seven
Encoding: 22 55 22
Width: 612
GlyphClass: 2
Flags: W
LayerCount: 2
Fore
SplineSet
198 41 m 1,0,1
 185 129 185 129 203.5 216.5 c 128,-1,2
 222 304 222 304 270 380 c 0,3,4
 290 410 290 410 341.5 473 c 128,-1,5
 393 536 393 536 415 574 c 0,6,7
 446 627 446 627 459 687 c 1,8,-1
 108 687 l 1,9,-1
 76 718 l 1,10,-1
 115 757 l 1,11,-1
 504 757 l 1,12,-1
 535 726 l 1,13,14
 524 649 524 649 485 582 c 0,15,16
 464 544 464 544 412.5 481 c 128,-1,17
 361 418 361 418 341 388 c 0,18,19
 293 312 293 312 274 224.5 c 128,-1,20
 255 137 255 137 269 49 c 1,21,-1
 230 10 l 1,22,-1
 198 41 l 1,0,1
EndSplineSet
Validated: 33
EndChar

StartChar: eight
Encoding: 23 56 23
Width: 612
GlyphClass: 2
Flags: W
LayerCount: 2
Fore
SplineSet
201 533 m 2,0,-1
 196 537 l 2,1,2
 198 535 198 535 201 533 c 2,0,-1
215 520 m 1,3,4
 250 492 250 492 310 461 c 1,5,6
 367 490 367 490 401 518 c 1,7,8
 431 557 431 557 431 602 c 0,9,10
 431 637 431 637 412 665 c 1,11,12
 371 693 371 693 302 693 c 0,13,14
 237 693 237 693 196 668 c 1,15,16
 180 642 180 642 180 610 c 0,17,18
 180 562 180 562 215 520 c 1,3,4
214 690 m 1,19,-1
 214 690 l 1,20,21
 214 690 214 690 214 690 c 1,19,-1
177 654 m 2,22,23
 176 653 176 653 176 653 c 2,24,25
 175 652 175 652 174 651 c 2,26,-1
 177 654 l 2,22,23
302 3 m 128,-1,28
 209 3 209 3 153 59 c 2,29,-1
 122 90 l 2,30,31
 120 92 120 92 119 93 c 0,32,33
 70 145 70 145 76 213 c 0,34,35
 82 277 82 277 135 329 c 2,36,-1
 174 369 l 2,37,38
 200 395 200 395 244 423 c 1,39,40
 209 446 209 446 188 467 c 2,41,-1
 157 498 l 2,42,43
 109 546 109 546 109 602 c 0,44,45
 109 649 109 649 143 682 c 2,46,-1
 182 722 l 2,47,48
 183 723 183 723 184 724 c 0,49,50
 227 764 227 764 310 764 c 128,-1,51
 393 764 393 764 435 724 c 0,52,53
 436 723 436 723 437 722 c 2,54,-1
 469 690 l 2,55,56
 502 657 502 657 502 610 c 0,57,58
 502 553 502 553 455 506 c 2,59,-1
 415 467 l 2,60,61
 397 448 397 448 367 428 c 1,62,63
 417 397 417 397 445 369 c 2,64,-1
 477 337 l 2,65,66
 530 284 530 284 535 221 c 0,67,68
 541 152 541 152 492 101 c 0,69,70
 491 100 491 100 490 98 c 2,71,-1
 450 59 l 2,72,27
 395 3 395 3 302 3 c 128,-1,28
163 127 m 2,73,-1
 161 129 l 2,74,75
 162 128 162 128 163 127 c 2,73,-1
179 113 m 1,76,77
 231 74 231 74 310 74 c 0,78,79
 386 74 386 74 437 111 c 1,80,81
 470 156 470 156 465 213 c 0,82,83
 460 269 460 269 419 316 c 1,84,85
 376 351 376 351 302 390 c 1,86,87
 230 353 230 353 188 318 c 1,88,89
 151 273 151 273 147 221 c 0,90,91
 142 160 142 160 179 113 c 1,76,77
170 302 m 2,92,93
 168 300 168 300 166 298 c 2,94,-1
 170 302 l 2,92,93
432 304 m 2,95,-1
 438 298 l 2,96,97
 435 301 435 301 432 304 c 2,95,-1
EndSplineSet
Validated: 41
EndChar

StartChar: nine
Encoding: 24 57 24
Width: 612
GlyphClass: 2
Flags: W
LayerCount: 2
Fore
SplineSet
238 80 m 1,0,-1
 239 82 l 1,1,-1
 207 50 l 2,2,3
 317 161 317 161 393 296 c 0,4,5
 402 312 402 312 410 328 c 1,6,7
 364 302 364 302 302 301 c 0,8,9
 212 300 212 300 158 354 c 2,10,-1
 127 385 l 2,11,12
 123 389 123 389 119 393 c 0,13,14
 78 441 78 441 76 518 c 0,15,16
 74 602 74 602 119 657 c 0,17,18
 124 664 124 664 131 670 c 2,19,-1
 170 709 l 2,20,21
 225 764 225 764 310 764 c 128,-1,22
 395 764 395 764 449 709 c 2,23,-1
 481 678 l 2,24,25
 487 672 487 672 492 665 c 0,26,27
 537 611 537 611 535 526 c 0,28,29
 538 487 538 487 525 453 c 1,30,31
 509 385 509 385 463 304 c 0,32,33
 384 164 384 164 271 51 c 2,34,-1
 231 11 l 1,35,-1
 230 10 l 1,36,-1
 198 41 l 1,37,-1
 238 80 l 1,0,-1
422 393 m 1,38,39
 422 393 422 393 422 393 c 1,40,41
 423 394 423 394 423 395 c 2,42,-1
 422 393 l 1,38,39
436 410 m 1,43,44
 447 426 447 426 454 444 c 0,45,46
 464 483 464 483 465 518 c 0,47,48
 466 601 466 601 424 655 c 1,49,50
 373 693 373 693 302 693 c 0,51,52
 233 693 233 693 183 657 c 1,53,54
 145 604 145 604 147 526 c 0,55,56
 148 455 148 455 184 409 c 1,57,58
 233 371 233 371 310 372 c 0,59,60
 385 372 385 372 436 410 c 1,43,44
440 641 m 2,61,-1
 442 639 l 2,62,63
 441 640 441 640 440 641 c 2,61,-1
207 50 m 2,64,-1
 200 43 l 2,65,66
 204 47 204 47 207 50 c 2,64,-1
EndSplineSet
Validated: 37
EndChar

StartChar: colon
Encoding: 25 58 25
Width: 612
GlyphClass: 2
Flags: W
LayerCount: 2
Fore
SplineSet
277 397 m 1,0,-1
 277 373 l 1,1,-1
 334 373 l 1,2,-1
 334 397 l 1,3,-1
 277 397 l 1,0,-1
238 302 m 1,4,-1
 207 334 l 1,5,-1
 207 428 l 1,6,-1
 246 467 l 1,7,-1
 373 467 l 1,8,-1
 405 436 l 1,9,-1
 405 342 l 1,10,-1
 366 302 l 1,11,-1
 238 302 l 1,4,-1
277 112 m 1,12,-1
 277 80 l 1,13,-1
 334 80 l 1,14,-1
 334 112 l 1,15,-1
 277 112 l 1,12,-1
238 10 m 1,16,-1
 207 41 l 1,17,-1
 207 144 l 1,18,-1
 246 183 l 1,19,-1
 373 183 l 1,20,-1
 405 152 l 1,21,-1
 405 49 l 1,22,-1
 366 10 l 1,23,-1
 238 10 l 1,16,-1
EndSplineSet
Validated: 1
EndChar

StartChar: semicolon
Encoding: 26 59 26
Width: 612
GlyphClass: 2
Flags: W
LayerCount: 2
Fore
SplineSet
277 397 m 1,0,-1
 277 373 l 1,1,-1
 334 373 l 1,2,-1
 334 397 l 1,3,-1
 277 397 l 1,0,-1
238 302 m 1,4,-1
 207 334 l 1,5,-1
 207 428 l 1,6,-1
 246 467 l 1,7,-1
 373 467 l 1,8,-1
 405 436 l 1,9,-1
 405 342 l 1,10,-1
 366 302 l 1,11,-1
 238 302 l 1,4,-1
281 126 m 1,12,-1
 221 0 l 1,13,-1
 327 126 l 1,14,-1
 281 126 l 1,12,-1
135 -137 m 1,15,-1
 104 -106 l 1,16,-1
 229 158 l 1,17,-1
 268 197 l 1,18,-1
 393 197 l 1,19,-1
 424 165 l 1,20,-1
 202 -98 l 1,21,-1
 163 -137 l 1,22,-1
 135 -137 l 1,15,-1
EndSplineSet
Validated: 1
EndChar

StartChar: less
Encoding: 27 60 27
Width: 612
GlyphClass: 2
Flags: W
LayerCount: 2
Fore
SplineSet
155 359 m 1,0,-1
 504 80 l 1,1,-1
 535 49 l 1,2,-1
 496 10 l 1,3,-1
 108 321 l 1,4,-1
 76 352 l 1,5,-1
 115 391 l 1,6,-1
 504 702 l 1,7,-1
 535 671 l 1,8,-1
 496 631 l 1,9,-1
 155 359 l 1,0,-1
EndSplineSet
Validated: 1
EndChar

StartChar: equal
Encoding: 28 61 28
Width: 612
GlyphClass: 2
Flags: W
LayerCount: 2
Fore
SplineSet
115 308 m 1,0,-1
 504 308 l 1,1,-1
 535 277 l 1,2,-1
 496 237 l 1,3,-1
 108 237 l 1,4,-1
 76 269 l 1,5,-1
 115 308 l 1,0,-1
115 535 m 1,6,-1
 504 535 l 1,7,-1
 535 504 l 1,8,-1
 496 465 l 1,9,-1
 108 465 l 1,10,-1
 76 496 l 1,11,-1
 115 535 l 1,6,-1
EndSplineSet
Validated: 1
EndChar

StartChar: greater
Encoding: 29 62 29
Width: 612
GlyphClass: 2
Flags: W
LayerCount: 2
Fore
SplineSet
496 321 m 1,0,-1
 108 10 l 1,1,-1
 76 41 l 1,2,-1
 115 80 l 1,3,-1
 456 353 l 1,4,-1
 108 631 l 1,5,-1
 76 663 l 1,6,-1
 115 702 l 1,7,-1
 504 391 l 1,8,-1
 535 360 l 1,9,-1
 496 321 l 1,0,-1
EndSplineSet
Validated: 1
EndChar

StartChar: question
Encoding: 30 63 30
Width: 612
GlyphClass: 2
Flags: W
LayerCount: 2
Fore
SplineSet
270 241 m 1,0,1
 269 255 269 255 270 269 c 0,2,3
 274 300 274 300 295.5 330.5 c 128,-1,4
 317 361 317 361 341 382 c 128,-1,5
 365 403 365 403 389.5 432.5 c 128,-1,6
 414 462 414 462 423 491 c 0,7,8
 434 526 434 526 426 562 c 0,9,10
 420 588 420 588 405 609 c 1,11,12
 363 641 363 641 302 638 c 0,13,14
 248 636 248 636 209 608 c 1,15,16
 188 578 188 578 188 540 c 1,17,-1
 149 501 l 1,18,-1
 118 532 l 1,19,20
 118 583 118 583 156 621 c 2,21,-1
 195 660 l 2,22,23
 240 705 240 705 310 708 c 0,24,25
 383 711 383 711 429 665 c 2,26,-1
 461 634 l 1,27,-1
 461 633 l 1,28,29
 488 607 488 607 496.5 570.5 c 128,-1,30
 505 534 505 534 494 499 c 0,31,32
 481 459 481 459 431 409 c 2,33,-1
 407 385 l 2,34,35
 378 356 378 356 361.5 331.5 c 128,-1,36
 345 307 345 307 341 277 c 0,37,38
 339 263 339 263 341 249 c 1,39,-1
 302 210 l 1,40,-1
 270 241 l 1,0,1
372 351 m 2,41,42
 369 348 369 348 367 346 c 2,43,-1
 372 351 l 2,41,42
399 617 m 2,44,45
 395 622 395 622 391 626 c 1,46,-1
 390 626 l 1,47,-1
 399 617 l 2,44,45
288 10 m 1,48,-1
 257 41 l 1,49,-1
 257 74 l 1,50,-1
 296 114 l 1,51,-1
 324 114 l 1,52,-1
 355 82 l 1,53,-1
 355 49 l 1,54,-1
 316 10 l 1,55,-1
 288 10 l 1,48,-1
EndSplineSet
Validated: 41
EndChar

StartChar: at
Encoding: 31 64 31
Width: 612
GlyphClass: 2
Flags: W
LayerCount: 2
Fore
SplineSet
191 652 m 1,0,1
 149 597 149 597 147 526 c 1,2,-1
 108 487 l 1,3,-1
 76 518 l 1,4,5
 78 605 78 605 139 665 c 2,6,-1
 178 705 l 2,7,8
 200 726 200 726 226 741 c 0,9,10
 267 764 267 764 310 764 c 128,-1,11
 353 764 353 764 393 741 c 0,12,13
 413 729 413 729 430 712 c 2,14,-1
 461 681 l 2,15,16
 493 649 493 649 511 604 c 0,17,18
 515 593 515 593 518.5 581.5 c 128,-1,19
 522 570 522 570 524.5 557 c 128,-1,20
 527 544 527 544 529 534.5 c 128,-1,21
 531 525 531 525 532 509.5 c 128,-1,22
 533 494 533 494 534 486 c 128,-1,23
 535 478 535 478 535 460.5 c 128,-1,24
 535 443 535 443 535 437.5 c 128,-1,25
 535 432 535 432 535 411.5 c 128,-1,26
 535 391 535 391 535 388 c 2,27,-1
 535 110 l 2,28,29
 535 82 535 82 515 63 c 2,30,-1
 476 24 l 2,31,32
 455 3 455 3 426.5 3 c 128,-1,33
 398 3 398 3 378 24 c 2,34,-1
 346 55 l 2,35,36
 342 60 342 60 338 64 c 1,37,-1
 312 38 l 2,38,39
 278 3 278 3 232.5 3 c 128,-1,40
 187 3 187 3 153 38 c 2,41,-1
 121 69 l 2,42,43
 111 79 111 79 104 91 c 0,44,45
 76 134 76 134 76 207 c 128,-1,46
 76 280 76 280 104 323 c 0,47,48
 111 335 111 335 121 345 c 2,49,-1
 161 384 l 2,50,51
 195 419 195 419 240 419 c 128,-1,52
 285 419 285 419 320 384 c 2,53,-1
 326 378 l 1,54,-1
 326 380 l 1,55,-1
 365 419 l 1,56,-1
 397 388 l 1,57,-1
 397 215 l 1,58,-1
 397 110 l 2,59,60
 397 94 397 94 404 81 c 1,61,62
 418 74 418 74 434 74 c 0,63,64
 448 74 448 74 460 79 c 1,65,66
 465 90 465 90 465 102 c 2,67,-1
 465 380 l 2,68,69
 465 384 465 384 465 404 c 128,-1,70
 465 424 465 424 465 429.5 c 128,-1,71
 465 435 465 435 464.5 453 c 128,-1,72
 464 471 464 471 463.5 478.5 c 128,-1,73
 463 486 463 486 461.5 501.5 c 128,-1,74
 460 517 460 517 458.5 526.5 c 128,-1,75
 457 536 457 536 454.5 549 c 128,-1,76
 452 562 452 562 448.5 573.5 c 128,-1,77
 445 585 445 585 440 596 c 0,78,79
 427 629 427 629 407 655 c 0,80,81
 396 663 396 663 385 670 c 0,82,83
 346 693 346 693 302 693 c 0,84,85
 260 693 260 693 219 670 c 0,86,87
 204 662 204 662 191 652 c 1,0,1
416 64 m 1,88,89
 416 64 416 64 417 63 c 2,90,-1
 416 64 l 1,88,89
294 329 m 0,91,92
 267 348 267 348 232 348 c 0,93,94
 200 348 200 348 174 331 c 1,95,96
 174 331 174 331 174 331 c 1,97,98
 147 288 147 288 147 215 c 128,-1,99
 147 142 147 142 174 99 c 0,100,101
 176 96 176 96 178 94 c 0,102,103
 206 74 206 74 240 74 c 0,104,105
 271 74 271 74 298 90 c 0,106,107
 298 91 298 91 298 91 c 1,108,109
 326 134 326 134 326 207 c 128,-1,110
 326 280 326 280 298 323 c 0,111,112
 296 326 296 326 294 329 c 0,91,92
EndSplineSet
Validated: 1
EndChar

StartChar: A
Encoding: 32 65 32
Width: 677
GlyphClass: 2
Flags: W
LayerCount: 2
Fore
SplineSet
70 41 m 1,0,-1
 264 663 l 1,1,-1
 303 702 l 1,2,-1
 335 671 l 1,3,-1
 218 298 l 1,4,-1
 342 298 l 1,5,-1
 456 298 l 1,6,-1
 342 663 l 1,7,-1
 381 702 l 1,8,-1
 412 671 l 1,9,-1
 539 267 l 1,10,-1
 539 267 l 1,11,-1
 539 267 l 1,12,-1
 607 49 l 1,13,-1
 567 10 l 1,14,-1
 536 41 l 1,15,-1
 478 227 l 1,16,-1
 334 227 l 1,17,-1
 196 227 l 1,18,-1
 140 49 l 1,19,-1
 101 10 l 1,20,-1
 70 41 l 1,0,-1
EndSplineSet
Validated: 5
EndChar

StartChar: B
Encoding: 33 66 33
Width: 677
GlyphClass: 2
Flags: W
LayerCount: 2
Fore
SplineSet
458 599 m 2,0,-1
 461 596 l 2,1,2
 459 598 459 598 458 599 c 2,0,-1
443 611 m 1,3,4
 428 621 428 621 408 624 c 0,5,6
 377 631 377 631 334 631 c 2,7,-1
 147 631 l 1,8,-1
 147 409 l 1,9,-1
 342 409 l 2,10,11
 385 409 385 409 416 416 c 0,12,13
 432 419 432 419 446 427 c 1,14,15
 465 460 465 460 465 516 c 0,16,17
 465 576 465 576 443 611 c 1,3,4
334 338 m 2,18,-1
 147 338 l 1,19,-1
 147 80 l 1,20,-1
 342 80 l 2,21,22
 378 80 378 80 392 80.5 c 128,-1,23
 406 81 406 81 435 84.5 c 128,-1,24
 464 88 464 88 484 96 c 0,25,26
 494 101 494 101 504 107 c 1,27,28
 529 146 529 146 529 206 c 0,29,30
 529 268 529 268 501 308 c 1,31,32
 489 316 489 316 476 322 c 0,33,34
 456 331 456 331 427 334 c 128,-1,35
 398 337 398 337 384.5 337.5 c 128,-1,36
 371 338 371 338 334 338 c 2,18,-1
481 394 m 2,37,38
 483 393 483 393 484 392 c 0,39,40
 504 384 504 384 521 369 c 0,41,42
 523 366 523 366 526 364 c 2,43,-1
 557 332 l 2,44,45
 600 289 600 289 600 213 c 128,-1,46
 600 137 600 137 557 94 c 2,47,-1
 518 55 l 2,48,49
 515 52 515 52 513 50 c 0,50,51
 496 35 496 35 476 26 c 128,-1,52
 456 17 456 17 427 14 c 128,-1,53
 398 11 398 11 384.5 10.5 c 128,-1,54
 371 10 371 10 334 10 c 2,55,-1
 108 10 l 1,56,-1
 76 41 l 1,57,-1
 76 369 l 1,58,-1
 76 663 l 1,59,-1
 115 702 l 1,60,-1
 342 702 l 2,61,62
 385 702 385 702 416 695 c 128,-1,63
 447 688 447 688 469 666 c 2,64,-1
 501 635 l 2,65,66
 535 600 535 600 535 524 c 128,-1,67
 535 448 535 448 501 413 c 2,68,-1
 481 394 l 2,37,38
EndSplineSet
Validated: 9
EndChar

StartChar: C
Encoding: 34 67 34
Width: 779
GlyphClass: 2
Flags: W
LayerCount: 2
Fore
SplineSet
595 114 m 2,0,1
 596 115 596 115 597 115 c 2,2,-1
 616 134 l 1,3,-1
 595 114 l 2,0,1
625 144 m 2,4,-1
 636 155 l 1,5,-1
 668 123 l 2,6,7
 667 123 667 123 666 122 c 2,8,-1
 627 83 l 2,9,10
 586 42 586 42 532.5 21.5 c 128,-1,11
 479 1 479 1 422 3 c 0,12,13
 321 8 321 8 252 77 c 2,14,-1
 220 109 l 2,15,16
 206 123 206 123 195 139 c 0,17,18
 139 216 139 216 139 352 c 128,-1,19
 139 488 139 488 195 565 c 0,20,21
 206 581 206 581 220 595 c 2,22,-1
 259 634 l 2,23,24
 329 704 329 704 430 708 c 0,25,26
 487 711 487 711 540.5 690.5 c 128,-1,27
 594 670 594 670 635 629 c 2,28,-1
 666 598 l 2,29,30
 667 597 667 597 668 596 c 2,31,-1
 628 557 l 1,32,-1
 627 558 l 2,33,34
 586 599 586 599 532.5 619.5 c 128,-1,35
 479 640 479 640 422 638 c 0,36,37
 335 634 335 634 272 582 c 0,38,39
 269 578 269 578 265 573 c 0,40,41
 210 495 210 495 210 359.5 c 128,-1,42
 210 224 210 224 265 147 c 0,43,44
 270 140 270 140 276 133 c 0,45,46
 341 78 341 78 430 74 c 0,47,48
 487 71 487 71 540 92 c 0,49,50
 587 110 587 110 625 144 c 2,4,-1
EndSplineSet
Validated: 37
EndChar

StartChar: D
Encoding: 35 68 35
Width: 770
GlyphClass: 2
Flags: W
LayerCount: 2
Fore
SplineSet
230 10 m 0,0,1
 207 9 207 9 185 10 c 1,2,-1
 154 41 l 1,3,-1
 154 663 l 1,4,-1
 193 702 l 1,5,6
 215 702 215 702 238 702 c 0,7,8
 441 698 441 698 540 600 c 0,9,10
 541 599 541 599 542 598 c 2,11,-1
 574 567 l 2,12,13
 657 483 657 483 657 360 c 128,-1,14
 657 237 657 237 574 153 c 2,15,-1
 534 114 l 1,16,-1
 533 112 l 1,17,18
 433 14 433 14 230 10 c 0,0,1
225 80 m 1,19,-1
 238 80 l 1,20,21
 423 85 423 85 522 166 c 1,22,23
 587 244 587 244 587 352 c 0,24,25
 587 463 587 463 519 542 c 1,26,27
 419 627 419 627 230 631 c 0,28,29
 227 631 227 631 225 631 c 2,30,-1
 225 80 l 1,19,-1
534 527 m 2,31,32
 533 528 533 528 533 529 c 0,33,34
 528 534 528 534 523 538 c 2,35,-1
 534 527 l 2,31,32
510 552 m 2,36,37
 507 555 507 555 503 559 c 2,38,-1
 510 552 l 2,36,37
EndSplineSet
Validated: 33
EndChar

StartChar: E
Encoding: 36 69 36
Width: 612
GlyphClass: 2
Flags: W
LayerCount: 2
Fore
SplineSet
191 631 m 1,0,-1
 191 409 l 1,1,-1
 446 409 l 1,2,-1
 477 377 l 1,3,-1
 438 338 l 1,4,-1
 191 338 l 1,5,-1
 191 80 l 1,6,-1
 493 80 l 1,7,-1
 524 49 l 1,8,-1
 485 10 l 1,9,-1
 152 10 l 1,10,-1
 121 41 l 1,11,-1
 121 369 l 1,12,-1
 121 663 l 1,13,-1
 160 702 l 1,14,-1
 493 702 l 1,15,-1
 524 671 l 1,16,-1
 485 631 l 1,17,-1
 191 631 l 1,0,-1
EndSplineSet
Validated: 1
EndChar

StartChar: F
Encoding: 37 70 37
Width: 612
GlyphClass: 2
Flags: W
LayerCount: 2
Fore
SplineSet
191 631 m 1,0,-1
 191 409 l 1,1,-1
 432 409 l 1,2,-1
 463 377 l 1,3,-1
 424 338 l 1,4,-1
 191 338 l 1,5,-1
 191 49 l 1,6,-1
 152 10 l 1,7,-1
 121 41 l 1,8,-1
 121 369 l 1,9,-1
 121 663 l 1,10,-1
 160 702 l 1,11,-1
 476 702 l 1,12,-1
 508 671 l 1,13,-1
 468 631 l 1,14,-1
 191 631 l 1,0,-1
EndSplineSet
Validated: 1
EndChar

StartChar: G
Encoding: 38 71 38
Width: 677
GlyphClass: 2
Flags: W
LayerCount: 2
Fore
SplineSet
510 303 m 1,0,-1
 357 303 l 1,1,-1
 325 334 l 1,2,-1
 365 374 l 1,3,-1
 549 374 l 1,4,-1
 581 342 l 1,5,-1
 581 99 l 1,6,-1
 541 60 l 1,7,8
 480 8 480 8 399 3 c 0,9,10
 345 0 345 0 295.5 19.5 c 128,-1,11
 246 39 246 39 208 77 c 2,12,-1
 176 108 l 2,13,14
 162 123 162 123 150 139 c 0,15,16
 94 217 94 217 89 352 c 0,17,18
 85 485 85 485 136 565 c 0,19,20
 150 586 150 586 168 604 c 2,21,-1
 207 643 l 2,22,23
 264 701 264 701 342 708 c 0,24,25
 390 713 390 713 435 697 c 128,-1,26
 480 681 480 681 514 647 c 2,27,-1
 545 616 l 2,28,29
 554 606 554 606 562 596 c 1,30,-1
 523 557 l 1,31,-1
 492 588 l 2,32,33
 491 589 491 589 490 590 c 0,34,35
 462 614 462 614 427 626 c 0,36,37
 382 642 382 642 334 638 c 0,38,39
 271 632 271 632 222 593 c 0,40,41
 214 583 214 583 207 573 c 0,42,43
 155 493 155 493 160 360 c 0,44,45
 164 225 164 225 221 147 c 0,46,47
 226 140 226 140 231 134 c 0,48,49
 263 106 263 106 303 90 c 0,50,51
 353 71 353 71 407 74 c 0,52,53
 463 77 463 77 510 103 c 1,54,-1
 510 303 l 1,0,-1
242 121 m 2,55,56
 245 118 245 118 247 116 c 2,57,-1
 242 121 l 2,55,56
478 604 m 2,58,59
 477 606 477 606 475 608 c 2,60,-1
 478 604 l 2,58,59
EndSplineSet
Validated: 41
EndChar

StartChar: H
Encoding: 39 72 39
Width: 677
GlyphClass: 2
Flags: W
LayerCount: 2
Fore
SplineSet
568 377 m 1,0,-1
 568 49 l 1,1,-1
 528 10 l 1,2,-1
 497 41 l 1,3,-1
 497 338 l 1,4,-1
 179 338 l 1,5,-1
 179 49 l 1,6,-1
 140 10 l 1,7,-1
 109 41 l 1,8,-1
 109 369 l 1,9,-1
 109 663 l 1,10,-1
 148 702 l 1,11,-1
 179 671 l 1,12,-1
 179 409 l 1,13,-1
 497 409 l 1,14,-1
 497 663 l 1,15,-1
 536 702 l 1,16,-1
 568 671 l 1,17,-1
 568 377 l 1,0,-1
EndSplineSet
Validated: 1
EndChar

StartChar: I
Encoding: 40 73 40
Width: 464
GlyphClass: 2
Flags: W
LayerCount: 2
Fore
SplineSet
196 631 m 1,0,-1
 128 631 l 1,1,-1
 97 663 l 1,2,-1
 136 702 l 1,3,-1
 236 702 l 1,4,-1
 335 702 l 1,5,-1
 366 671 l 1,6,-1
 327 631 l 1,7,-1
 267 631 l 1,8,-1
 267 80 l 1,9,-1
 351 80 l 1,10,-1
 383 49 l 1,11,-1
 343 10 l 1,12,-1
 228 10 l 1,13,-1
 112 10 l 1,14,-1
 81 41 l 1,15,-1
 120 80 l 1,16,-1
 196 80 l 1,17,-1
 196 631 l 1,0,-1
EndSplineSet
Validated: 1
EndChar

StartChar: J
Encoding: 41 74 41
Width: 612
GlyphClass: 2
Flags: W
LayerCount: 2
Fore
SplineSet
166 213 m 1,0,-1
 166 193 l 2,1,2
 166 130 166 130 192 93 c 1,3,4
 219 75 219 75 254 74 c 0,5,6
 292 73 292 73 322 92 c 1,7,8
 345 129 345 129 345 185 c 2,9,-1
 345 663 l 1,10,-1
 385 702 l 1,11,-1
 416 671 l 1,12,-1
 416 193 l 2,13,14
 416 131 416 131 387 92 c 0,15,16
 382 85 382 85 375 78 c 2,17,-1
 336 39 l 2,18,19
 299 2 299 2 246 3 c 0,20,21
 199 5 199 5 166 38 c 2,22,-1
 135 69 l 2,23,24
 128 76 128 76 122 84 c 0,25,26
 96 121 96 121 96 185 c 2,27,-1
 96 205 l 1,28,-1
 135 244 l 1,29,-1
 166 213 l 1,0,-1
EndSplineSet
Validated: 33
EndChar

StartChar: K
Encoding: 42 75 42
Width: 612
GlyphClass: 2
Flags: W
LayerCount: 2
Fore
SplineSet
90 41 m 1,0,-1
 90 663 l 1,1,-1
 129 702 l 1,2,-1
 161 671 l 1,3,-1
 161 371 l 1,4,-1
 442 663 l 1,5,-1
 482 702 l 1,6,-1
 513 671 l 1,7,-1
 230 377 l 1,8,-1
 535 49 l 1,9,-1
 496 10 l 1,10,-1
 465 41 l 1,11,-1
 161 367 l 1,12,-1
 161 49 l 1,13,-1
 121 10 l 1,14,-1
 90 41 l 1,0,-1
EndSplineSet
Validated: 1
EndChar

StartChar: L
Encoding: 43 76 43
Width: 612
GlyphClass: 2
Flags: W
LayerCount: 2
Fore
SplineSet
175 80 m 1,0,-1
 504 80 l 1,1,-1
 535 49 l 1,2,-1
 496 10 l 1,3,-1
 135 10 l 1,4,-1
 104 41 l 1,5,-1
 104 663 l 1,6,-1
 143 702 l 1,7,-1
 175 671 l 1,8,-1
 175 80 l 1,0,-1
EndSplineSet
Validated: 1
EndChar

StartChar: M
Encoding: 44 77 44
Width: 779
GlyphClass: 2
Flags: W
LayerCount: 2
Fore
SplineSet
665 671 m 1,0,-1
 665 49 l 1,1,-1
 626 10 l 1,2,-1
 594 41 l 1,3,-1
 594 663 l 1,4,-1
 633 702 l 1,5,-1
 665 671 l 1,0,-1
113 41 m 1,6,-1
 113 663 l 1,7,-1
 152 702 l 1,8,-1
 184 671 l 1,9,-1
 184 49 l 1,10,-1
 145 10 l 1,11,-1
 113 41 l 1,6,-1
391 326 m 1,12,-1
 520 663 l 1,13,-1
 559 702 l 1,14,-1
 591 671 l 1,15,-1
 435 267 l 1,16,-1
 396 227 l 1,17,-1
 374 227 l 1,18,-1
 343 259 l 1,19,-1
 187 663 l 1,20,-1
 226 702 l 1,21,-1
 258 671 l 1,22,-1
 391 326 l 1,12,-1
EndSplineSet
Validated: 1
EndChar

StartChar: N
Encoding: 45 78 45
Width: 612
GlyphClass: 2
Flags: W
LayerCount: 2
Fore
SplineSet
90 41 m 1,0,-1
 90 663 l 1,1,-1
 129 702 l 1,2,-1
 161 671 l 1,3,-1
 161 665 l 1,4,-1
 199 702 l 1,5,-1
 230 671 l 1,6,-1
 451 52 l 1,7,-1
 451 663 l 1,8,-1
 490 702 l 1,9,-1
 521 671 l 1,10,-1
 521 49 l 1,11,-1
 482 10 l 1,12,-1
 451 41 l 1,13,-1
 451 48 l 1,14,-1
 413 10 l 1,15,-1
 381 41 l 1,16,-1
 161 657 l 1,17,-1
 161 49 l 1,18,-1
 121 10 l 1,19,-1
 90 41 l 1,0,-1
EndSplineSet
Validated: 1
EndChar

StartChar: O
Encoding: 46 79 46
Width: 779
GlyphClass: 2
Flags: W
LayerCount: 2
Fore
SplineSet
393 708 m 128,-1,1
 493 708 493 708 565 637 c 2,2,-1
 596 605 l 2,3,4
 611 590 611 590 623 573 c 0,5,6
 680 493 680 493 680 359.5 c 128,-1,7
 680 226 680 226 623 147 c 0,8,9
 611 129 611 129 596 114 c 2,10,-1
 557 75 l 2,11,12
 485 3 485 3 385 3 c 128,-1,13
 285 3 285 3 213 75 c 2,14,-1
 182 106 l 2,15,16
 167 121 167 121 155 139 c 0,17,18
 98 218 98 218 98 351.5 c 128,-1,19
 98 485 98 485 155 565 c 0,20,21
 167 582 167 582 182 597 c 2,22,-1
 221 637 l 2,23,0
 293 708 293 708 393 708 c 128,-1,1
538 584 m 0,24,25
 472 638 472 638 385 638 c 0,26,27
 300 638 300 638 236 587 c 0,28,29
 230 580 230 580 225 573 c 0,30,31
 169 493 169 493 169 359.5 c 128,-1,32
 169 226 169 226 225 147 c 0,33,34
 231 138 231 138 238 130 c 0,35,36
 305 74 305 74 393 74 c 0,37,38
 479 74 479 74 544 127 c 0,39,40
 548 133 548 133 553 139 c 0,41,42
 609 218 609 218 609 351.5 c 128,-1,43
 609 485 609 485 553 565 c 0,44,45
 546 575 546 575 538 584 c 0,24,25
EndSplineSet
Validated: 1
EndChar

StartChar: P
Encoding: 47 80 47
Width: 677
GlyphClass: 2
Flags: W
LayerCount: 2
Fore
SplineSet
109 341 m 1,0,-1
 109 663 l 1,1,-1
 148 702 l 1,2,-1
 342 702 l 2,3,4
 345 702 345 702 352 702 c 0,5,6
 393 702 393 702 415 701 c 128,-1,7
 437 700 437 700 468.5 690.5 c 128,-1,8
 500 681 500 681 521 663 c 0,9,10
 524 660 524 660 526 657 c 2,11,-1
 558 626 l 2,12,13
 600 584 600 584 600 510 c 128,-1,14
 600 436 600 436 558 394 c 2,15,-1
 518 355 l 2,16,17
 516 352 516 352 513 349 c 0,18,19
 496 334 496 334 476.5 325.5 c 128,-1,20
 457 317 457 317 427 314 c 128,-1,21
 397 311 397 311 384.5 310.5 c 128,-1,22
 372 310 372 310 334 310 c 2,23,-1
 179 310 l 1,24,-1
 179 49 l 1,25,-1
 140 10 l 1,26,-1
 109 41 l 1,27,-1
 109 341 l 1,0,-1
179 631 m 1,28,-1
 179 381 l 1,29,-1
 342 381 l 2,30,31
 345 381 345 381 352 381 c 0,32,33
 383 381 383 381 399.5 381.5 c 128,-1,34
 416 382 416 382 441 385.5 c 128,-1,35
 466 389 466 389 485 398 c 0,36,37
 495 402 495 402 505 408 c 1,38,39
 529 446 529 446 529 502 c 0,40,41
 529 563 529 563 501 602 c 1,42,43
 489 610 489 610 476 616 c 0,44,45
 457 625 457 625 427 628 c 128,-1,46
 397 631 397 631 384.5 631 c 128,-1,47
 372 631 372 631 334 631 c 2,48,-1
 179 631 l 1,28,-1
521 420 m 2,49,50
 524 422 524 422 526 425 c 2,51,-1
 521 420 l 2,49,50
EndSplineSet
Validated: 1
EndChar

StartChar: Q
Encoding: 48 81 48
Width: 677
GlyphClass: 2
Flags: W
LayerCount: 2
Fore
SplineSet
493 83 m 1,0,-1
 474 64 l 2,1,2
 413 3 413 3 334 3 c 128,-1,3
 255 3 255 3 194 64 c 2,4,-1
 163 96 l 2,5,6
 143 115 143 115 129 139 c 0,7,8
 79 217 79 217 79 351.5 c 128,-1,9
 79 486 79 486 129 565 c 0,10,11
 143 589 143 589 163 608 c 2,12,-1
 202 647 l 2,13,14
 263 708 263 708 342 708 c 128,-1,15
 421 708 421 708 482 647 c 2,16,-1
 513 616 l 2,17,18
 533 597 533 597 548 573 c 0,19,20
 597 494 597 494 597 359.5 c 128,-1,21
 597 225 597 225 548 147 c 0,22,23
 541 136 541 136 534 127 c 1,24,-1
 600 49 l 1,25,-1
 561 10 l 1,26,-1
 529 41 l 1,27,-1
 493 83 l 1,0,-1
457 592 m 0,28,29
 402 638 402 638 334 638 c 0,30,31
 268 638 268 638 215 596 c 0,32,33
 207 585 207 585 199 573 c 0,34,35
 150 494 150 494 150 359.5 c 128,-1,36
 150 225 150 225 199 147 c 0,37,38
 208 132 208 132 219 120 c 0,39,40
 274 74 274 74 342 74 c 0,41,42
 408 74 408 74 461 116 c 0,43,44
 462 117 462 117 463 119 c 2,45,-1
 293 319 l 1,46,-1
 332 358 l 1,47,-1
 364 326 l 1,48,-1
 495 173 l 1,49,50
 526 244 526 244 526 352 c 0,51,52
 526 486 526 486 477 565 c 0,53,54
 468 580 468 580 457 592 c 0,28,29
EndSplineSet
Validated: 1
EndChar

StartChar: R
Encoding: 49 82 49
Width: 677
GlyphClass: 2
Flags: W
LayerCount: 2
Fore
SplineSet
324 310 m 1,0,1
 314 310 314 310 302 310 c 2,2,-1
 192 310 l 1,3,-1
 192 49 l 1,4,-1
 153 10 l 1,5,-1
 121 41 l 1,6,-1
 121 341 l 1,7,-1
 121 663 l 1,8,-1
 161 702 l 1,9,-1
 310 702 l 2,10,11
 351 702 351 702 372 701 c 128,-1,12
 393 700 393 700 424 690.5 c 128,-1,13
 455 681 455 681 475 663 c 0,14,15
 477 661 477 661 479 659 c 2,16,-1
 510 628 l 2,17,18
 552 587 552 587 552 510 c 128,-1,19
 552 433 552 433 510 392 c 2,20,-1
 471 353 l 2,21,22
 469 351 469 351 468 349 c 0,23,24
 447 331 447 331 416 322 c 0,25,26
 405 318 405 318 395 316 c 1,27,-1
 574 49 l 1,28,-1
 535 10 l 1,29,-1
 504 41 l 1,30,-1
 324 310 l 1,0,1
192 631 m 1,31,-1
 192 381 l 1,32,-1
 310 381 l 2,33,34
 351 381 351 381 372 382 c 128,-1,35
 393 383 393 383 424 392 c 0,36,37
 443 398 443 398 458 407 c 1,38,39
 481 444 481 444 481 502 c 0,40,41
 481 564 481 564 454 603 c 1,42,43
 444 610 444 610 433 615 c 0,44,45
 414 624 414 624 388.5 627 c 128,-1,46
 363 630 363 630 348 630.5 c 128,-1,47
 333 631 333 631 302 631 c 2,48,-1
 192 631 l 1,31,-1
EndSplineSet
Validated: 1
EndChar

StartChar: S
Encoding: 50 83 50
Width: 612
GlyphClass: 2
Flags: W
LayerCount: 2
Fore
SplineSet
401 269 m 1,0,1
 365 299 365 299 302 331 c 0,2,3
 233 365 233 365 203 395 c 2,4,-1
 172 427 l 2,5,6
 148 451 148 451 137 479 c 0,7,8
 123 516 123 516 131 554 c 128,-1,9
 139 592 139 592 165 622 c 0,10,11
 168 624 168 624 170 627 c 2,12,-1
 209 666 l 2,13,14
 251 707 251 707 310 708 c 0,15,16
 375 710 375 710 420 664 c 2,17,-1
 452 632 l 2,18,19
 468 616 468 616 479 596 c 1,20,-1
 439 557 l 1,21,-1
 408 588 l 2,22,23
 402 599 402 599 394 609 c 0,24,25
 354 639 354 639 302 638 c 0,26,27
 258 637 258 637 223 613 c 1,28,29
 207 590 207 590 202 562 c 0,30,31
 194 523 194 523 208 487 c 0,32,33
 216 467 216 467 229 450 c 1,34,35
 259 427 259 427 310 401 c 0,36,37
 390 361 390 361 426 325 c 2,38,-1
 457 293 l 2,39,40
 502 248 502 248 502 195 c 0,41,42
 502 135 502 135 458 91 c 2,43,-1
 419 51 l 2,44,45
 417 50 417 50 416 49 c 0,46,47
 369 4 369 4 302 3 c 0,48,49
 224 2 224 2 169 57 c 2,50,-1
 137 89 l 2,51,52
 116 111 116 111 102 139 c 1,53,-1
 141 178 l 1,54,-1
 173 147 l 1,55,56
 182 129 182 129 194 113 c 1,57,58
 244 73 244 73 310 74 c 0,59,60
 364 75 364 75 405 104 c 1,61,62
 431 141 431 141 431 187 c 0,63,64
 431 231 431 231 401 269 c 1,0,1
215 463 m 2,65,-1
 211 466 l 2,66,67
 213 464 213 464 215 463 c 2,65,-1
242 436 m 1,68,69
 242 436 242 436 243 435 c 2,70,-1
 242 436 l 1,68,69
236 629 m 2,71,-1
 241 634 l 2,72,73
 238 632 238 632 236 629 c 2,71,-1
EndSplineSet
Validated: 33
EndChar

StartChar: T
Encoding: 51 84 51
Width: 612
GlyphClass: 2
Flags: W
LayerCount: 2
Fore
SplineSet
341 631 m 1,0,-1
 341 49 l 1,1,-1
 302 10 l 1,2,-1
 270 41 l 1,3,-1
 270 631 l 1,4,-1
 108 631 l 1,5,-1
 76 663 l 1,6,-1
 115 702 l 1,7,-1
 310 702 l 1,8,-1
 504 702 l 1,9,-1
 535 671 l 1,10,-1
 496 631 l 1,11,-1
 341 631 l 1,0,-1
EndSplineSet
Validated: 1
EndChar

StartChar: U
Encoding: 52 85 52
Width: 612
GlyphClass: 2
Flags: W
LayerCount: 2
Fore
SplineSet
161 671 m 1,0,-1
 161 249 l 2,1,2
 161 164 161 164 199 112 c 1,3,4
 246 74 246 74 310 74 c 0,5,6
 370 74 370 74 414 106 c 1,7,8
 451 158 451 158 451 241 c 2,9,-1
 451 663 l 1,10,-1
 490 702 l 1,11,-1
 521 671 l 1,12,-1
 521 249 l 2,13,14
 521 163 521 163 482 110 c 0,15,16
 475 101 475 101 467 93 c 2,17,-1
 428 54 l 2,18,19
 377 3 377 3 302 3 c 128,-1,20
 227 3 227 3 176 54 c 2,21,-1
 145 85 l 2,22,23
 137 93 137 93 130 102 c 0,24,25
 90 155 90 155 90 241 c 2,26,-1
 90 663 l 1,27,-1
 129 702 l 1,28,-1
 161 671 l 1,0,-1
211 97 m 2,29,30
 213 95 213 95 215 93 c 2,31,-1
 211 97 l 2,29,30
EndSplineSet
Validated: 9
EndChar

StartChar: V
Encoding: 53 86 53
Width: 677
GlyphClass: 2
Flags: W
LayerCount: 2
Fore
SplineSet
345 41 m 1,0,-1
 529 663 l 1,1,-1
 569 702 l 1,2,-1
 600 671 l 1,3,-1
 416 49 l 1,4,-1
 376 10 l 1,5,-1
 345 41 l 1,0,-1
147 671 m 1,6,-1
 331 49 l 1,7,-1
 292 10 l 1,8,-1
 261 41 l 1,9,-1
 76 663 l 1,10,-1
 115 702 l 1,11,-1
 147 671 l 1,6,-1
EndSplineSet
Validated: 1
EndChar

StartChar: W
Encoding: 54 87 54
Width: 779
GlyphClass: 2
Flags: W
LayerCount: 2
Fore
SplineSet
683 671 m 1,0,-1
 624 49 l 1,1,-1
 585 10 l 1,2,-1
 553 41 l 1,3,-1
 613 663 l 1,4,-1
 652 702 l 1,5,-1
 683 671 l 1,0,-1
228 41 m 1,6,-1
 343 394 l 1,7,-1
 382 433 l 1,8,-1
 404 433 l 1,9,-1
 435 401 l 1,10,-1
 550 49 l 1,11,-1
 511 10 l 1,12,-1
 479 41 l 1,13,-1
 388 323 l 1,14,-1
 299 49 l 1,15,-1
 259 10 l 1,16,-1
 228 41 l 1,6,-1
165 671 m 1,17,-1
 225 49 l 1,18,-1
 185 10 l 1,19,-1
 154 41 l 1,20,-1
 95 663 l 1,21,-1
 134 702 l 1,22,-1
 165 671 l 1,17,-1
EndSplineSet
Validated: 1
EndChar

StartChar: X
Encoding: 55 88 55
Width: 612
GlyphClass: 2
Flags: W
LayerCount: 2
Fore
SplineSet
510 671 m 1,0,-1
 352 377 l 1,1,-1
 516 49 l 1,2,-1
 477 10 l 1,3,-1
 445 41 l 1,4,-1
 304 325 l 1,5,-1
 166 49 l 1,6,-1
 127 10 l 1,7,-1
 96 41 l 1,8,-1
 259 369 l 1,9,-1
 101 663 l 1,10,-1
 140 702 l 1,11,-1
 172 671 l 1,12,-1
 308 418 l 1,13,-1
 440 663 l 1,14,-1
 479 702 l 1,15,-1
 510 671 l 1,0,-1
EndSplineSet
Validated: 1
EndChar

StartChar: Y
Encoding: 56 89 56
Width: 658
GlyphClass: 2
Flags: W
LayerCount: 2
Fore
SplineSet
331 401 m 1,0,-1
 494 663 l 1,1,-1
 534 702 l 1,2,-1
 565 671 l 1,3,-1
 364 349 l 1,4,-1
 364 49 l 1,5,-1
 325 10 l 1,6,-1
 294 41 l 1,7,-1
 294 341 l 1,8,-1
 93 663 l 1,9,-1
 132 702 l 1,10,-1
 163 671 l 1,11,-1
 331 401 l 1,0,-1
EndSplineSet
Validated: 1
EndChar

StartChar: Z
Encoding: 57 90 57
Width: 612
GlyphClass: 2
Flags: W
LayerCount: 2
Fore
SplineSet
468 10 m 1,0,-1
 135 10 l 1,1,-1
 104 41 l 1,2,-1
 393 631 l 1,3,-1
 138 631 l 1,4,-1
 107 663 l 1,5,-1
 146 702 l 1,6,-1
 448 702 l 1,7,-1
 480 671 l 1,8,-1
 190 80 l 1,9,-1
 476 80 l 1,10,-1
 508 49 l 1,11,-1
 468 10 l 1,0,-1
EndSplineSet
Validated: 1
EndChar

StartChar: bracketleft
Encoding: 58 91 58
Width: 612
GlyphClass: 2
Flags: W
LayerCount: 2
Fore
SplineSet
496 10 m 1,0,-1
 219 10 l 1,1,-1
 187 41 l 1,2,-1
 187 718 l 1,3,-1
 226 757 l 1,4,-1
 504 757 l 1,5,-1
 535 726 l 1,6,-1
 496 687 l 1,7,-1
 258 687 l 1,8,-1
 258 80 l 1,9,-1
 504 80 l 1,10,-1
 535 49 l 1,11,-1
 496 10 l 1,0,-1
EndSplineSet
Validated: 1
EndChar

StartChar: bracketright
Encoding: 59 93 59
Width: 612
GlyphClass: 2
Flags: W
LayerCount: 2
Fore
SplineSet
354 687 m 1,0,-1
 108 687 l 1,1,-1
 76 718 l 1,2,-1
 115 757 l 1,3,-1
 393 757 l 1,4,-1
 424 726 l 1,5,-1
 424 49 l 1,6,-1
 385 10 l 1,7,-1
 108 10 l 1,8,-1
 76 41 l 1,9,-1
 115 80 l 1,10,-1
 354 80 l 1,11,-1
 354 687 l 1,0,-1
EndSplineSet
Validated: 1
EndChar

StartChar: asciicircum
Encoding: 60 94 60
Width: 612
GlyphClass: 2
Flags: W
LayerCount: 2
Fore
SplineSet
381 629 m 1,0,-1
 312 718 l 1,1,-1
 351 757 l 1,2,-1
 383 726 l 1,3,-1
 452 637 l 1,4,-1
 413 598 l 1,5,-1
 381 629 l 1,0,-1
159 629 m 1,6,-1
 229 718 l 1,7,-1
 268 757 l 1,8,-1
 299 726 l 1,9,-1
 230 637 l 1,10,-1
 191 598 l 1,11,-1
 159 629 l 1,6,-1
EndSplineSet
Validated: 1
EndChar

StartChar: underscore
Encoding: 61 95 61
Width: 612
GlyphClass: 2
Flags: W
LayerCount: 2
Fore
SplineSet
115 36 m 1,0,-1
 504 36 l 1,1,-1
 535 5 l 1,2,-1
 496 -35 l 1,3,-1
 108 -35 l 1,4,-1
 76 -3 l 1,5,-1
 115 36 l 1,0,-1
EndSplineSet
Validated: 1
EndChar

StartChar: grave
Encoding: 62 96 62
Width: 612
GlyphClass: 2
Flags: W
LayerCount: 2
Fore
SplineSet
298 629 m 1,0,-1
 229 718 l 1,1,-1
 268 757 l 1,2,-1
 299 726 l 1,3,-1
 369 637 l 1,4,-1
 330 598 l 1,5,-1
 298 629 l 1,0,-1
EndSplineSet
Validated: 1
EndChar

StartChar: a
Encoding: 63 97 63
Width: 612
GlyphClass: 2
Flags: W
LayerCount: 2
Fore
SplineSet
404 117 m 1,0,1
 419 136 419 136 429 159 c 1,2,-1
 429 232 l 1,3,4
 359 265 359 265 280 265 c 0,5,6
 219 265 219 265 180 241 c 1,7,8
 161 212 161 212 161 173 c 0,9,10
 161 131 161 131 185 99 c 1,11,12
 226 70 226 70 287 74 c 0,13,14
 354 78 354 78 404 117 c 1,0,1
499 167 m 1,15,-1
 499 49 l 1,16,-1
 460 10 l 1,17,-1
 429 41 l 1,18,-1
 429 77 l 1,19,-1
 417 65 l 2,20,21
 360 8 360 8 280 3 c 0,22,23
 204 -1 204 -1 158 44 c 2,24,-1
 127 76 l 2,25,26
 126 77 126 77 125 78 c 0,27,28
 90 114 90 114 90 166 c 128,-1,29
 90 218 90 218 125 253 c 0,30,31
 125 254 125 254 126 254 c 2,32,-1
 165 293 l 2,33,34
 207 336 207 336 287 336 c 0,35,36
 362 336 362 336 429 306 c 1,37,-1
 429 335 l 2,38,39
 429 399 429 399 400 440 c 1,40,41
 360 470 360 470 302 471 c 0,42,43
 223 473 223 473 166 424 c 1,44,-1
 136 394 l 1,45,-1
 105 425 l 1,46,47
 112 434 112 434 120 442 c 2,48,-1
 159 481 l 2,49,50
 221 543 221 543 310 542 c 0,51,52
 380 541 380 541 424 497 c 2,53,-1
 455 466 l 2,54,55
 460 461 460 461 464 456 c 0,56,57
 499 413 499 413 499 343 c 2,58,-1
 499 255 l 1,59,-1
 499 167 l 1,15,-1
180 439 m 2,60,-1
 190 449 l 2,61,62
 185 444 185 444 180 439 c 2,60,-1
154 413 m 2,63,64
 152 411 152 411 151 410 c 2,65,-1
 154 413 l 2,63,64
EndSplineSet
Validated: 41
EndChar

StartChar: b
Encoding: 64 98 64
Width: 612
GlyphClass: 2
Flags: W
LayerCount: 2
Fore
SplineSet
310 542 m 128,-1,1
 388 542 388 542 442 487 c 2,2,-1
 474 456 l 2,3,4
 484 445 484 445 492 434 c 0,5,6
 535 375 535 375 535 276.5 c 128,-1,7
 535 178 535 178 492 119 c 0,8,9
 484 108 484 108 474 97 c 2,10,-1
 434 58 l 2,11,12
 380 3 380 3 302 3 c 128,-1,13
 224 3 224 3 169 58 c 2,14,-1
 147 80 l 1,15,-1
 147 49 l 1,16,-1
 108 10 l 1,17,-1
 76 41 l 1,18,-1
 76 268 l 1,19,-1
 76 718 l 1,20,-1
 115 757 l 1,21,-1
 147 726 l 1,22,-1
 147 457 l 1,23,-1
 177 487 l 2,24,0
 232 542 232 542 310 542 c 128,-1,1
418 432 m 0,25,26
 368 471 368 471 302 471 c 0,27,28
 239 471 239 471 192 436 c 0,29,30
 191 435 191 435 190 434 c 0,31,32
 147 375 147 375 147 276.5 c 128,-1,33
 147 178 147 178 190 119 c 0,34,35
 192 116 192 116 194 114 c 0,36,37
 244 74 244 74 310 74 c 0,38,39
 374 74 374 74 422 111 c 1,40,41
 465 170 465 170 465 268 c 0,42,43
 465 367 465 367 422 426 c 0,44,45
 420 429 420 429 418 432 c 0,25,26
EndSplineSet
Validated: 1
EndChar

StartChar: c
Encoding: 65 99 65
Width: 612
GlyphClass: 2
Flags: W
LayerCount: 2
Fore
SplineSet
415 104 m 1,0,1
 429 124 429 124 436 148 c 1,2,-1
 475 188 l 1,3,-1
 507 156 l 1,4,5
 497 119 497 119 469 91 c 2,6,-1
 430 51 l 2,7,8
 378 0 378 0 302 3 c 0,9,10
 231 6 231 6 181 56 c 2,11,-1
 150 87 l 2,12,13
 139 98 139 98 130 111 c 0,14,15
 90 169 90 169 90 269 c 128,-1,16
 90 369 90 369 130 426 c 0,17,18
 139 439 139 439 150 450 c 2,19,-1
 189 489 l 2,20,21
 239 539 239 539 310 542 c 0,22,23
 386 545 386 545 437 494 c 2,24,-1
 469 462 l 2,25,26
 497 434 497 434 507 397 c 1,27,-1
 468 358 l 1,28,-1
 436 389 l 1,29,30
 429 417 429 417 412 439 c 1,31,32
 365 473 365 473 302 471 c 0,33,34
 246 469 246 469 203 437 c 0,35,36
 201 436 201 436 200 434 c 0,37,38
 161 377 161 377 161 276.5 c 128,-1,39
 161 176 161 176 200 119 c 0,40,41
 203 115 203 115 207 111 c 0,42,43
 251 76 251 76 310 74 c 0,44,45
 371 72 371 72 415 104 c 1,0,1
191 124 m 2,46,-1
 189 126 l 2,47,48
 190 125 190 125 191 124 c 2,46,-1
182 420 m 2,49,50
 181 419 181 419 181 419 c 1,51,-1
 182 420 l 2,49,50
428 425 m 2,52,-1
 430 423 l 2,53,54
 429 424 429 424 428 425 c 2,52,-1
398 454 m 1,55,56
 398 454 398 454 398 454 c 1,57,-1
 398 454 l 1,55,56
EndSplineSet
Validated: 41
EndChar

StartChar: d
Encoding: 66 100 66
Width: 612
GlyphClass: 2
Flags: W
LayerCount: 2
Fore
SplineSet
310 542 m 128,-1,1
 388 542 388 542 442 487 c 2,2,-1
 465 465 l 1,3,-1
 465 718 l 1,4,-1
 504 757 l 1,5,-1
 535 726 l 1,6,-1
 535 276 l 1,7,-1
 535 49 l 1,8,-1
 496 10 l 1,9,-1
 465 41 l 1,10,-1
 465 88 l 1,11,-1
 434 58 l 2,12,13
 380 3 380 3 302 3 c 128,-1,14
 224 3 224 3 169 58 c 2,15,-1
 138 89 l 2,16,17
 128 100 128 100 119 111 c 0,18,19
 76 170 76 170 76 268.5 c 128,-1,20
 76 367 76 367 119 426 c 0,21,22
 128 438 128 438 138 448 c 2,23,-1
 177 487 l 2,24,0
 232 542 232 542 310 542 c 128,-1,1
418 432 m 0,25,26
 368 471 368 471 302 471 c 0,27,28
 239 471 239 471 192 436 c 0,29,30
 191 435 191 435 190 434 c 0,31,32
 147 375 147 375 147 276.5 c 128,-1,33
 147 178 147 178 190 119 c 0,34,35
 192 116 192 116 194 114 c 0,36,37
 244 74 244 74 310 74 c 0,38,39
 374 74 374 74 422 111 c 1,40,41
 465 170 465 170 465 268 c 0,42,43
 465 367 465 367 422 426 c 0,44,45
 420 429 420 429 418 432 c 0,25,26
EndSplineSet
Validated: 1
EndChar

StartChar: e
Encoding: 67 101 67
Width: 612
GlyphClass: 2
Flags: W
LayerCount: 2
Fore
SplineSet
416 105 m 1,0,1
 430 125 430 125 436 148 c 1,2,-1
 475 188 l 1,3,-1
 507 156 l 1,4,5
 497 120 497 120 470 92 c 2,6,-1
 430 53 l 2,7,8
 380 2 380 2 302 3 c 0,9,10
 223 4 223 4 169 58 c 2,11,-1
 138 89 l 2,12,13
 127 100 127 100 119 111 c 0,14,15
 79 167 79 167 76 269 c 0,16,17
 73 370 73 370 109 426 c 0,18,19
 119 440 119 440 131 453 c 2,20,-1
 170 492 l 2,21,22
 209 531 209 531 266 542 c 0,23,24
 311 551 311 551 354 539 c 128,-1,25
 397 527 397 527 427 497 c 2,26,-1
 458 466 l 2,27,28
 473 451 473 451 483 434 c 0,29,30
 508 391 508 391 508 304 c 1,31,-1
 468 265 l 1,32,-1
 147 265 l 1,33,34
 152 171 152 171 190 119 c 0,35,36
 192 117 192 117 194 114 c 0,37,38
 243 75 243 75 310 74 c 0,39,40
 372 73 372 73 416 105 c 1,0,1
194 452 m 2,41,-1
 202 460 l 2,42,43
 198 456 198 456 194 452 c 2,41,-1
166 424 m 2,44,45
 165 423 165 423 163 421 c 2,46,-1
 166 424 l 2,44,45
183 439 m 0,47,48
 182 436 182 436 180 434 c 0,49,50
 155 396 155 396 149 336 c 1,51,-1
 435 336 l 1,52,53
 431 394 431 394 412 426 c 0,54,55
 408 433 408 433 403 440 c 0,56,57
 378 459 378 459 346 468 c 0,58,59
 303 480 303 480 258 471 c 0,60,61
 215 463 215 463 183 439 c 0,47,48
EndSplineSet
Validated: 41
EndChar

StartChar: f
Encoding: 68 102 68
Width: 556
GlyphClass: 2
Flags: W
LayerCount: 2
Fore
SplineSet
313 535 m 1,0,-1
 443 535 l 1,1,-1
 474 504 l 1,2,-1
 435 465 l 1,3,-1
 313 465 l 1,4,-1
 313 49 l 1,5,-1
 274 10 l 1,6,-1
 243 41 l 1,7,-1
 243 465 l 1,8,-1
 113 465 l 1,9,-1
 82 496 l 1,10,-1
 121 535 l 1,11,-1
 243 535 l 1,12,-1
 243 685 l 1,13,-1
 282 724 l 1,14,-1
 440 757 l 1,15,-1
 471 726 l 1,16,-1
 432 687 l 1,17,-1
 313 662 l 1,18,-1
 313 535 l 1,0,-1
EndSplineSet
Validated: 1
EndChar

StartChar: g
Encoding: 69 103 69
Width: 612
GlyphClass: 2
Flags: W
LayerCount: 2
Fore
SplineSet
310 542 m 128,-1,1
 390 542 390 542 444 487 c 2,2,-1
 465 467 l 1,3,-1
 465 491 l 1,4,-1
 504 530 l 1,5,-1
 535 499 l 1,6,-1
 535 284 l 1,7,-1
 535 82 l 2,8,9
 535 -21 535 -21 467 -89 c 2,10,-1
 427 -128 l 2,11,12
 393 -163 393 -163 346 -179 c 0,13,14
 292 -197 292 -197 237 -184 c 128,-1,15
 182 -171 182 -171 141 -131 c 2,16,-1
 110 -100 l 2,17,18
 107 -96 107 -96 104 -93 c 1,19,-1
 143 -54 l 1,20,-1
 149 -60 l 2,21,22
 151 -62 151 -62 153 -64 c 0,23,24
 192 -102 192 -102 244 -114 c 0,25,26
 300 -127 300 -127 354 -108 c 0,27,28
 387 -97 387 -97 415 -76 c 1,29,30
 465 -13 465 -13 465 74 c 2,31,-1
 465 102 l 1,32,-1
 436 74 l 2,33,34
 382 19 382 19 302 19 c 128,-1,35
 222 19 222 19 167 74 c 2,36,-1
 136 105 l 2,37,38
 127 114 127 114 119 125 c 0,39,40
 76 182 76 182 76 276.5 c 128,-1,41
 76 371 76 371 119 428 c 0,42,43
 127 439 127 439 136 448 c 2,44,-1
 175 487 l 2,45,0
 230 542 230 542 310 542 c 128,-1,1
408 444 m 2,46,47
 407 446 407 446 405 448 c 2,48,-1
 408 444 l 2,46,47
420 431 m 0,49,50
 371 471 371 471 302 471 c 0,51,52
 238 471 238 471 190 436 c 1,53,54
 147 379 147 379 147 284 c 0,55,56
 147 190 147 190 190 133 c 0,57,58
 191 131 191 131 192 130 c 0,59,60
 242 90 242 90 310 90 c 0,61,62
 375 90 375 90 423 127 c 1,63,64
 465 183 465 183 465 276 c 0,65,66
 465 371 465 371 422 428 c 0,67,68
 421 429 421 429 420 431 c 0,49,50
408 108 m 2,69,-1
 405 105 l 2,70,71
 406 106 406 106 408 108 c 2,69,-1
203 116 m 2,72,73
 205 114 205 114 206 113 c 2,74,-1
 203 116 l 2,72,73
204 454 m 2,75,-1
 206 456 l 2,76,77
 205 455 205 455 204 454 c 2,75,-1
174 -85 m 2,78,79
 177 -89 177 -89 181 -92 c 2,80,-1
 174 -85 l 2,78,79
EndSplineSet
Validated: 41
EndChar

StartChar: h
Encoding: 70 104 70
Width: 612
GlyphClass: 2
Flags: W
LayerCount: 2
Fore
SplineSet
448 41 m 1,0,-1
 448 296 l 2,1,2
 448 384 448 384 416 431 c 0,3,4
 415 432 415 432 414 434 c 0,5,6
 380 459 380 459 334 465 c 0,7,8
 292 470 292 470 252 456 c 0,9,10
 225 447 225 447 202 430 c 1,11,12
 163 377 163 377 163 304 c 2,13,-1
 163 49 l 1,14,-1
 124 10 l 1,15,-1
 92 41 l 1,16,-1
 92 296 l 1,17,-1
 92 718 l 1,18,-1
 132 757 l 1,19,-1
 163 726 l 1,20,-1
 163 456 l 1,21,-1
 189 482 l 2,22,23
 209 502 209 502 234 515 c 128,-1,24
 259 528 259 528 286.5 533.5 c 128,-1,25
 314 539 314 539 342 535 c 0,26,27
 400 529 400 529 439 490 c 2,28,-1
 470 459 l 2,29,30
 480 449 480 449 487 439 c 0,31,32
 519 392 519 392 519 304 c 2,33,-1
 519 49 l 1,34,-1
 480 10 l 1,35,-1
 448 41 l 1,0,-1
184 415 m 2,36,37
 183 414 183 414 181 412 c 2,38,-1
 184 415 l 2,36,37
EndSplineSet
Validated: 41
EndChar

StartChar: i
Encoding: 71 105 71
Width: 417
GlyphClass: 2
Flags: W
LayerCount: 2
Fore
SplineSet
120 535 m 1,0,-1
 259 535 l 1,1,-1
 290 504 l 1,2,-1
 290 49 l 1,3,-1
 251 10 l 1,4,-1
 220 41 l 1,5,-1
 220 465 l 1,6,-1
 112 465 l 1,7,-1
 81 496 l 1,8,-1
 120 535 l 1,0,-1
228 654 m 1,9,-1
 196 685 l 1,10,-1
 196 718 l 1,11,-1
 236 757 l 1,12,-1
 259 757 l 1,13,-1
 290 726 l 1,14,-1
 290 693 l 1,15,-1
 251 654 l 1,16,-1
 228 654 l 1,9,-1
EndSplineSet
Validated: 1
EndChar

StartChar: j
Encoding: 72 106 72
Width: 501
GlyphClass: 2
Flags: W
LayerCount: 2
Fore
SplineSet
171 535 m 1,0,-1
 310 535 l 1,1,-1
 341 504 l 1,2,-1
 341 -29 l 1,3,-1
 302 -68 l 1,4,-1
 94 -137 l 1,5,-1
 62 -106 l 1,6,-1
 102 -67 l 1,7,-1
 270 -10 l 1,8,-1
 270 465 l 1,9,-1
 163 465 l 1,10,-1
 132 496 l 1,11,-1
 171 535 l 1,0,-1
274 654 m 1,12,-1
 243 685 l 1,13,-1
 243 718 l 1,14,-1
 282 757 l 1,15,-1
 310 757 l 1,16,-1
 341 726 l 1,17,-1
 341 693 l 1,18,-1
 302 654 l 1,19,-1
 274 654 l 1,12,-1
EndSplineSet
Validated: 1
EndChar

StartChar: k
Encoding: 73 107 73
Width: 658
GlyphClass: 2
Flags: W
LayerCount: 2
Fore
SplineSet
144 41 m 1,0,-1
 144 718 l 1,1,-1
 183 757 l 1,2,-1
 215 726 l 1,3,-1
 215 49 l 1,4,-1
 176 10 l 1,5,-1
 144 41 l 1,0,-1
257 333 m 1,6,-1
 504 535 l 1,7,-1
 535 504 l 1,8,-1
 496 465 l 1,9,-1
 295 299 l 1,10,-1
 540 80 l 1,11,-1
 571 49 l 1,12,-1
 532 10 l 1,13,-1
 250 262 l 1,14,-1
 218 294 l 1,15,-1
 257 333 l 1,6,-1
EndSplineSet
Validated: 1
EndChar

StartChar: l
Encoding: 74 108 74
Width: 417
GlyphClass: 2
Flags: W
LayerCount: 2
Fore
SplineSet
198 80 m 1,0,-1
 328 80 l 1,1,-1
 360 49 l 1,2,-1
 320 10 l 1,3,-1
 158 10 l 1,4,-1
 127 41 l 1,5,-1
 127 721 l 1,6,-1
 166 760 l 1,7,-1
 198 729 l 1,8,-1
 198 80 l 1,0,-1
EndSplineSet
Validated: 1
EndChar

StartChar: m
Encoding: 75 109 75
Width: 881
GlyphClass: 2
Flags: W
LayerCount: 2
Fore
SplineSet
696 41 m 1,0,-1
 696 352 l 2,1,2
 696 411 696 411 671 448 c 1,3,4
 638 471 638 471 594 471 c 0,5,6
 543 471 543 471 505 445 c 1,7,8
 475 401 475 401 475 332 c 2,9,-1
 475 49 l 1,10,-1
 436 10 l 1,11,-1
 405 41 l 1,12,-1
 405 324 l 1,13,-1
 405 352 l 2,14,15
 405 412 405 412 378 449 c 1,16,17
 346 471 346 471 303 471 c 0,18,19
 252 471 252 471 214 446 c 1,20,21
 184 401 184 401 184 332 c 2,22,-1
 184 49 l 1,23,-1
 145 10 l 1,24,-1
 113 41 l 1,25,-1
 113 324 l 1,26,-1
 113 496 l 1,27,-1
 152 535 l 1,28,-1
 184 504 l 1,29,-1
 184 481 l 1,30,-1
 200 497 l 2,31,32
 244 542 244 542 311 542 c 0,33,34
 366 542 366 542 404 504 c 2,35,-1
 435 473 l 2,36,37
 441 467 441 467 446 461 c 0,38,39
 448 458 448 458 450 456 c 1,40,41
 451 457 451 457 452 458 c 2,42,-1
 491 497 l 2,43,44
 535 542 535 542 602 542 c 0,45,46
 658 542 658 542 695 504 c 2,47,-1
 727 473 l 2,48,49
 732 467 732 467 737 461 c 0,50,51
 767 423 767 423 767 360 c 2,52,-1
 767 49 l 1,53,-1
 727 10 l 1,54,-1
 696 41 l 1,0,-1
EndSplineSet
Validated: 1
EndChar

StartChar: n
Encoding: 76 110 76
Width: 612
GlyphClass: 2
Flags: W
LayerCount: 2
Fore
SplineSet
451 41 m 1,0,-1
 451 296 l 2,1,2
 451 386 451 386 416 435 c 0,3,4
 415 437 415 437 414 438 c 0,5,6
 376 467 376 467 324 471 c 0,7,8
 253 477 253 477 200 436 c 1,9,10
 161 382 161 382 161 304 c 2,11,-1
 161 49 l 1,12,-1
 121 10 l 1,13,-1
 90 41 l 1,14,-1
 90 296 l 1,15,-1
 90 496 l 1,16,-1
 129 535 l 1,17,-1
 161 504 l 1,18,-1
 161 463 l 1,19,-1
 187 489 l 2,20,21
 247 549 247 549 332 542 c 0,22,23
 396 537 396 537 438 494 c 2,24,-1
 470 463 l 2,25,26
 479 453 479 453 487 443 c 0,27,28
 521 394 521 394 521 304 c 2,29,-1
 521 49 l 1,30,-1
 482 10 l 1,31,-1
 451 41 l 1,0,-1
EndSplineSet
Validated: 33
EndChar

StartChar: o
Encoding: 77 111 77
Width: 612
GlyphClass: 2
Flags: W
LayerCount: 2
Fore
SplineSet
310 542 m 128,-1,1
 388 542 388 542 442 487 c 2,2,-1
 474 456 l 2,3,4
 484 445 484 445 492 434 c 0,5,6
 535 375 535 375 535 276.5 c 128,-1,7
 535 178 535 178 492 119 c 0,8,9
 484 108 484 108 474 97 c 2,10,-1
 434 58 l 2,11,12
 380 3 380 3 302 3 c 128,-1,13
 224 3 224 3 169 58 c 2,14,-1
 138 89 l 2,15,16
 128 100 128 100 119 111 c 0,17,18
 76 170 76 170 76 268.5 c 128,-1,19
 76 367 76 367 119 426 c 0,20,21
 128 438 128 438 138 448 c 2,22,-1
 177 487 l 2,23,0
 232 542 232 542 310 542 c 128,-1,1
418 432 m 0,24,25
 368 471 368 471 302 471 c 0,26,27
 239 471 239 471 192 436 c 0,28,29
 191 435 191 435 190 434 c 0,30,31
 147 375 147 375 147 276.5 c 128,-1,32
 147 178 147 178 190 119 c 0,33,34
 192 116 192 116 194 114 c 0,35,36
 244 74 244 74 310 74 c 0,37,38
 374 74 374 74 422 111 c 1,39,40
 465 170 465 170 465 268 c 0,41,42
 465 367 465 367 422 426 c 0,43,44
 420 429 420 429 418 432 c 0,24,25
EndSplineSet
Validated: 1
EndChar

StartChar: p
Encoding: 78 112 78
Width: 612
GlyphClass: 2
Flags: W
LayerCount: 2
Fore
SplineSet
306 545 m 128,-1,1
 383 545 383 545 437 491 c 2,2,-1
 468 460 l 2,3,4
 478 450 478 450 486 438 c 0,5,6
 529 380 529 380 529 283 c 128,-1,7
 529 186 529 186 486 128 c 0,8,9
 478 116 478 116 468 106 c 2,10,-1
 429 67 l 2,11,12
 375 13 375 13 298 13 c 128,-1,13
 221 13 221 13 167 67 c 2,14,-1
 145 89 l 1,15,-1
 145 -161 l 1,16,-1
 106 -200 l 1,17,-1
 75 -169 l 1,18,-1
 75 275 l 1,19,-1
 75 500 l 1,20,-1
 114 539 l 1,21,-1
 145 508 l 1,22,-1
 145 461 l 1,23,-1
 175 491 l 2,24,0
 229 545 229 545 306 545 c 128,-1,1
414 435 m 0,25,26
 365 475 365 475 298 475 c 0,27,28
 235 475 235 475 188 439 c 0,29,30
 187 439 187 439 187 438 c 0,31,32
 145 380 145 380 145 283 c 128,-1,33
 145 186 145 186 187 128 c 0,34,35
 189 125 189 125 192 122 c 0,36,37
 240 83 240 83 306 83 c 0,38,39
 369 83 369 83 416 119 c 0,40,41
 417 119 417 119 417 120 c 0,42,43
 459 178 459 178 459 275 c 128,-1,44
 459 372 459 372 417 431 c 0,45,46
 416 433 416 433 414 435 c 0,25,26
EndSplineSet
Validated: 1
EndChar

StartChar: q
Encoding: 79 113 79
Width: 612
GlyphClass: 2
Flags: W
LayerCount: 2
Fore
SplineSet
306 545 m 128,-1,1
 383 545 383 545 437 491 c 2,2,-1
 459 469 l 1,3,-1
 459 500 l 1,4,-1
 498 539 l 1,5,-1
 529 508 l 1,6,-1
 529 283 l 1,7,-1
 529 -161 l 1,8,-1
 490 -200 l 1,9,-1
 459 -169 l 1,10,-1
 459 97 l 1,11,-1
 429 67 l 2,12,13
 375 13 375 13 298 13 c 128,-1,14
 221 13 221 13 167 67 c 2,15,-1
 136 98 l 2,16,17
 126 108 126 108 117 120 c 0,18,19
 75 178 75 178 75 275 c 128,-1,20
 75 372 75 372 117 431 c 0,21,22
 126 442 126 442 136 452 c 2,23,-1
 175 491 l 2,24,0
 229 545 229 545 306 545 c 128,-1,1
414 435 m 0,25,26
 365 475 365 475 298 475 c 0,27,28
 235 475 235 475 188 439 c 0,29,30
 187 439 187 439 187 438 c 0,31,32
 145 380 145 380 145 283 c 128,-1,33
 145 186 145 186 187 128 c 0,34,35
 189 125 189 125 192 122 c 0,36,37
 240 83 240 83 306 83 c 0,38,39
 369 83 369 83 416 119 c 0,40,41
 417 119 417 119 417 120 c 0,42,43
 459 178 459 178 459 275 c 128,-1,44
 459 372 459 372 417 431 c 0,45,46
 416 433 416 433 414 435 c 0,25,26
EndSplineSet
Validated: 1
EndChar

StartChar: r
Encoding: 80 114 80
Width: 482
GlyphClass: 2
Flags: W
LayerCount: 2
Fore
SplineSet
219 445 m 1,0,1
 202 422 202 422 192 394 c 0,2,3
 175 352 175 352 175 304 c 2,4,-1
 175 49 l 1,5,-1
 135 10 l 1,6,-1
 104 41 l 1,7,-1
 104 296 l 1,8,-1
 104 496 l 1,9,-1
 143 535 l 1,10,-1
 175 504 l 1,11,-1
 175 468 l 1,12,-1
 205 498 l 2,13,14
 255 548 255 548 321 542 c 0,15,16
 364 538 364 538 394 507 c 2,17,-1
 426 476 l 2,18,19
 434 468 434 468 441 458 c 1,20,-1
 401 419 l 1,21,-1
 370 450 l 2,22,23
 370 451 370 451 369 451 c 0,24,25
 345 468 345 468 313 471 c 0,26,27
 260 476 260 476 219 445 c 1,0,1
EndSplineSet
Validated: 33
EndChar

StartChar: s
Encoding: 81 115 81
Width: 556
GlyphClass: 2
Flags: W
LayerCount: 2
Fore
SplineSet
370 213 m 2,0,1
 368 215 368 215 367 216 c 2,2,-1
 370 213 l 2,0,1
381 199 m 1,3,4
 344 225 344 225 274 240 c 0,5,6
 191 257 191 257 158 290 c 2,7,-1
 127 322 l 2,8,9
 111 337 111 337 104 358 c 0,10,11
 94 386 94 386 102 414.5 c 128,-1,12
 110 443 110 443 132 465 c 2,13,-1
 171 504 l 2,14,15
 172 505 172 505 172 506 c 0,16,17
 217 549 217 549 282 542 c 0,18,19
 336 536 336 536 374 498 c 2,20,-1
 405 467 l 2,21,22
 421 451 421 451 432 431 c 1,23,-1
 392 392 l 1,24,-1
 361 423 l 2,25,26
 355 433 355 433 348 443 c 0,27,28
 316 467 316 467 274 471 c 0,29,30
 223 476 223 476 185 452 c 1,31,32
 177 438 177 438 172 422 c 0,33,34
 165 394 165 394 175 365 c 0,35,36
 178 355 178 355 184 346 c 1,37,38
 218 324 218 324 282 310 c 0,39,40
 370 291 370 291 406 255 c 2,41,-1
 438 224 l 2,42,43
 463 198 463 198 463 164 c 0,44,45
 463 122 463 122 429 87 c 2,46,-1
 390 48 l 2,47,48
 385 44 385 44 380 40 c 0,49,50
 336 2 336 2 274 3 c 0,51,52
 203 5 203 5 153 55 c 2,53,-1
 121 86 l 2,54,55
 110 98 110 98 100 111 c 1,56,-1
 140 151 l 1,57,-1
 171 119 l 2,58,59
 174 115 174 115 177 111 c 0,60,61
 223 75 223 75 282 74 c 0,62,63
 335 73 335 73 376 101 c 1,64,65
 393 126 393 126 393 156 c 0,66,67
 393 180 393 180 381 199 c 1,3,4
361 83 m 2,68,-1
 358 80 l 2,69,70
 360 82 360 82 361 83 c 2,68,-1
388 110 m 2,71,72
 393 114 393 114 397 119 c 2,73,-1
 388 110 l 2,71,72
168 359 m 2,74,-1
 166 361 l 2,75,76
 167 360 167 360 168 359 c 2,74,-1
196 332 m 2,77,78
 197 331 197 331 198 330 c 2,79,-1
 196 332 l 2,77,78
363 430 m 2,80,-1
 366 427 l 2,81,82
 364 429 364 429 363 430 c 2,80,-1
EndSplineSet
Validated: 41
EndChar

StartChar: t
Encoding: 82 116 82
Width: 556
GlyphClass: 2
Flags: W
LayerCount: 2
Fore
SplineSet
258 80 m 1,0,-1
 421 80 l 1,1,-1
 452 49 l 1,2,-1
 413 10 l 1,3,-1
 219 10 l 1,4,-1
 187 41 l 1,5,-1
 187 465 l 1,6,-1
 94 465 l 1,7,-1
 62 496 l 1,8,-1
 102 535 l 1,9,-1
 187 535 l 1,10,-1
 187 718 l 1,11,-1
 226 757 l 1,12,-1
 258 726 l 1,13,-1
 258 535 l 1,14,-1
 418 535 l 1,15,-1
 449 504 l 1,16,-1
 410 465 l 1,17,-1
 258 465 l 1,18,-1
 258 80 l 1,0,-1
EndSplineSet
Validated: 1
EndChar

StartChar: u
Encoding: 83 117 83
Width: 612
GlyphClass: 2
Flags: W
LayerCount: 2
Fore
SplineSet
161 504 m 1,0,-1
 161 277 l 2,1,2
 161 173 161 173 194 119 c 0,3,4
 198 113 198 113 202 107 c 0,5,6
 237 80 237 80 282 74 c 0,7,8
 323 68 323 68 363 82 c 0,9,10
 390 91 390 91 412 108 c 1,11,12
 451 160 451 160 451 230 c 2,13,-1
 451 496 l 1,14,-1
 490 535 l 1,15,-1
 521 504 l 1,16,-1
 521 238 l 1,17,-1
 521 49 l 1,18,-1
 482 10 l 1,19,-1
 451 41 l 1,20,-1
 451 81 l 1,21,-1
 425 55 l 2,22,23
 395 25 395 25 355.5 11.5 c 128,-1,24
 316 -2 316 -2 274 3 c 0,25,26
 218 11 218 11 178 51 c 2,27,-1
 147 82 l 2,28,29
 134 96 134 96 124 111 c 0,30,31
 90 165 90 165 90 269 c 2,32,-1
 90 496 l 1,33,-1
 129 535 l 1,34,-1
 161 504 l 1,0,-1
396 88 m 2,35,-1
 394 86 l 2,36,37
 395 87 395 87 396 88 c 2,35,-1
EndSplineSet
Validated: 41
EndChar

StartChar: v
Encoding: 84 118 84
Width: 556
GlyphClass: 2
Flags: W
LayerCount: 2
Fore
SplineSet
280 41 m 1,0,-1
 447 496 l 1,1,-1
 486 535 l 1,2,-1
 518 504 l 1,3,-1
 350 49 l 1,4,-1
 311 10 l 1,5,-1
 280 41 l 1,0,-1
109 504 m 1,6,-1
 276 49 l 1,7,-1
 237 10 l 1,8,-1
 206 41 l 1,9,-1
 38 496 l 1,10,-1
 78 535 l 1,11,-1
 109 504 l 1,6,-1
EndSplineSet
Validated: 1
EndChar

StartChar: w
Encoding: 85 119 85
Width: 779
GlyphClass: 2
Flags: W
LayerCount: 2
Fore
SplineSet
550 41 m 1,0,-1
 609 496 l 1,1,-1
 648 535 l 1,2,-1
 680 504 l 1,3,-1
 620 49 l 1,4,-1
 581 10 l 1,5,-1
 550 41 l 1,0,-1
169 504 m 1,6,-1
 228 49 l 1,7,-1
 189 10 l 1,8,-1
 158 41 l 1,9,-1
 98 496 l 1,10,-1
 138 535 l 1,11,-1
 169 504 l 1,6,-1
387 223 m 1,12,-1
 302 49 l 1,13,-1
 263 10 l 1,14,-1
 232 41 l 1,15,-1
 354 291 l 1,16,-1
 393 330 l 1,17,-1
 424 299 l 1,18,-1
 546 49 l 1,19,-1
 507 10 l 1,20,-1
 476 41 l 1,21,-1
 387 223 l 1,12,-1
EndSplineSet
Validated: 1
EndChar

StartChar: x
Encoding: 86 120 86
Width: 612
GlyphClass: 2
Flags: W
LayerCount: 2
Fore
SplineSet
109 41 m 1,0,-1
 265 277 l 1,1,-1
 121 496 l 1,2,-1
 160 535 l 1,3,-1
 191 504 l 1,4,-1
 309 326 l 1,5,-1
 420 496 l 1,6,-1
 460 535 l 1,7,-1
 491 504 l 1,8,-1
 347 285 l 1,9,-1
 502 49 l 1,10,-1
 463 10 l 1,11,-1
 431 41 l 1,12,-1
 303 235 l 1,13,-1
 180 49 l 1,14,-1
 141 10 l 1,15,-1
 109 41 l 1,0,-1
EndSplineSet
Validated: 1
EndChar

StartChar: y
Encoding: 87 121 87
Width: 612
GlyphClass: 2
Flags: W
LayerCount: 2
Fore
SplineSet
304 209 m 1,0,-1
 462 496 l 1,1,-1
 501 535 l 1,2,-1
 533 504 l 1,3,-1
 205 -90 l 1,4,-1
 166 -129 l 1,5,-1
 108 -140 l 1,6,-1
 76 -109 l 1,7,-1
 115 -70 l 1,8,-1
 154 -62 l 1,9,-1
 265 140 l 1,10,-1
 265 140 l 1,11,-1
 76 496 l 1,12,-1
 115 535 l 1,13,-1
 147 504 l 1,14,-1
 304 209 l 1,0,-1
EndSplineSet
Validated: 5
EndChar

StartChar: z
Encoding: 88 122 88
Width: 612
GlyphClass: 2
Flags: W
LayerCount: 2
Fore
SplineSet
157 535 m 1,0,-1
 457 535 l 1,1,-1
 488 504 l 1,2,-1
 201 80 l 1,3,-1
 479 80 l 1,4,-1
 510 49 l 1,5,-1
 471 10 l 1,6,-1
 141 10 l 1,7,-1
 109 41 l 1,8,-1
 396 465 l 1,9,-1
 149 465 l 1,10,-1
 118 496 l 1,11,-1
 157 535 l 1,0,-1
EndSplineSet
Validated: 1
EndChar

StartChar: braceleft
Encoding: 89 123 89
Width: 612
GlyphClass: 2
Flags: W
LayerCount: 2
Fore
SplineSet
496 10 m 1,0,-1
 413 10 l 2,1,2
 358 11 358 11 319 49 c 2,3,-1
 288 81 l 2,4,5
 267 102 267 102 257 130 c 0,6,7
 247 156 247 156 246.5 198.5 c 128,-1,8
 246 241 246 241 241 278 c 0,9,10
 237 305 237 305 224 325 c 1,11,12
 207 336 207 336 186 341 c 0,13,14
 153 348 153 348 108 348 c 1,15,-1
 76 380 l 1,16,-1
 115 419 l 1,17,18
 161 419 161 419 194 426 c 0,19,20
 213 431 213 431 228 439 c 1,21,22
 237 457 237 457 242 478 c 0,23,24
 248 513 248 513 246 543 c 128,-1,25
 244 573 244 573 248.5 609 c 128,-1,26
 253 645 253 645 270 668 c 0,27,28
 275 675 275 675 282 681 c 2,29,-1
 321 721 l 2,30,31
 358 757 358 757 421 757 c 2,32,-1
 504 757 l 1,33,-1
 535 726 l 1,34,-1
 496 687 l 1,35,-1
 413 687 l 2,36,37
 367 687 367 687 335 668 c 1,38,39
 326 651 326 651 322 630 c 0,40,41
 316 603 316 603 316.5 577 c 128,-1,42
 317 551 317 551 316.5 525 c 128,-1,43
 316 499 316 499 309 473.5 c 128,-1,44
 302 448 302 448 286 429 c 0,45,46
 284 427 284 427 282 425 c 2,47,-1
 244 388 l 1,48,49
 247 385 247 385 250 382 c 2,50,-1
 281 350 l 2,51,52
 283 348 283 348 286 346 c 0,53,54
 307 322 307 322 312 285.5 c 128,-1,55
 317 249 317 249 317.5 206.5 c 128,-1,56
 318 164 318 164 327 138 c 0,57,58
 333 120 333 120 345 105 c 1,59,60
 378 81 378 81 421 80 c 2,61,-1
 504 80 l 1,62,-1
 535 49 l 1,63,-1
 496 10 l 1,0,-1
331 117 m 2,64,-1
 327 120 l 2,65,66
 329 118 329 118 331 117 c 2,64,-1
358 90 m 1,67,68
 358 90 358 90 359 89 c 2,69,-1
 358 90 l 1,67,68
EndSplineSet
Validated: 33
EndChar

StartChar: bar
Encoding: 90 124 90
Width: 612
GlyphClass: 2
Flags: W
LayerCount: 2
Fore
SplineSet
270 41 m 1,0,-1
 270 718 l 1,1,-1
 310 757 l 1,2,-1
 341 726 l 1,3,-1
 341 49 l 1,4,-1
 302 10 l 1,5,-1
 270 41 l 1,0,-1
EndSplineSet
Validated: 1
EndChar

StartChar: braceright
Encoding: 91 125 91
Width: 612
GlyphClass: 2
Flags: W
LayerCount: 2
Fore
SplineSet
115 80 m 1,0,-1
 199 80 l 2,1,2
 239 81 239 81 270 102 c 1,3,4
 279 115 279 115 284 130 c 0,5,6
 294 156 294 156 294.5 198.5 c 128,-1,7
 295 241 295 241 299.5 277.5 c 128,-1,8
 304 314 304 314 326 338 c 0,9,10
 328 340 328 340 330 343 c 2,11,-1
 367 380 l 1,12,13
 364 383 364 383 361 386 c 2,14,-1
 330 417 l 2,15,16
 328 419 328 419 326 421 c 0,17,18
 306 444 306 444 299.5 478.5 c 128,-1,19
 293 513 293 513 295 543 c 128,-1,20
 297 573 297 573 292 609 c 0,21,22
 287 643 287 643 272 666 c 1,23,24
 239 687 239 687 191 687 c 2,25,-1
 108 687 l 1,26,-1
 76 718 l 1,27,-1
 115 757 l 1,28,-1
 199 757 l 2,29,30
 262 757 262 757 298 721 c 2,31,-1
 330 689 l 2,32,33
 336 683 336 683 341 676 c 0,34,35
 355 657 355 657 360.5 630 c 128,-1,36
 366 603 366 603 366 577 c 128,-1,37
 366 551 366 551 366 525 c 128,-1,38
 366 499 366 499 373 474 c 0,39,40
 378 456 378 456 387 442 c 1,41,42
 404 431 404 431 425 426 c 0,43,44
 458 419 458 419 504 419 c 1,45,-1
 535 388 l 1,46,-1
 496 348 l 1,47,48
 450 348 450 348 417 341 c 0,49,50
 399 337 399 337 384 329 c 1,51,52
 373 310 373 310 370 286 c 0,53,54
 365 249 365 249 365 206.5 c 128,-1,55
 365 164 365 164 355 138 c 0,56,57
 345 110 345 110 324 89 c 2,58,-1
 284 49 l 2,59,60
 246 11 246 11 191 10 c 2,61,-1
 108 10 l 1,62,-1
 76 41 l 1,63,-1
 115 80 l 1,0,-1
365 314 m 2,64,65
 364 313 364 313 362 311 c 2,66,-1
 365 314 l 2,64,65
288 653 m 2,67,-1
 291 650 l 2,68,69
 290 651 290 651 288 653 c 2,67,-1
EndSplineSet
Validated: 41
EndChar

StartChar: guillemotleft
Encoding: 92 171 92
Width: 612
GlyphClass: 2
Flags: W
LayerCount: 2
Fore
SplineSet
452 436 m 1,0,-1
 258 239 l 1,1,-1
 452 43 l 1,2,-1
 413 3 l 1,3,-1
 381 35 l 1,4,-1
 187 231 l 1,5,-1
 381 428 l 1,6,-1
 421 467 l 1,7,-1
 452 436 l 1,0,-1
341 436 m 1,8,-1
 147 239 l 1,9,-1
 341 43 l 1,10,-1
 302 3 l 1,11,-1
 270 35 l 1,12,-1
 76 231 l 1,13,-1
 270 428 l 1,14,-1
 310 467 l 1,15,-1
 341 436 l 1,8,-1
EndSplineSet
Validated: 1
EndChar

StartChar: guillemotright
Encoding: 93 187 93
Width: 612
GlyphClass: 2
Flags: W
LayerCount: 2
Fore
SplineSet
230 436 m 1,0,-1
 424 239 l 1,1,-1
 230 43 l 1,2,-1
 191 3 l 1,3,-1
 159 35 l 1,4,-1
 354 231 l 1,5,-1
 159 428 l 1,6,-1
 199 467 l 1,7,-1
 230 436 l 1,0,-1
341 436 m 1,8,-1
 535 239 l 1,9,-1
 341 43 l 1,10,-1
 302 3 l 1,11,-1
 270 35 l 1,12,-1
 465 231 l 1,13,-1
 270 428 l 1,14,-1
 310 467 l 1,15,-1
 341 436 l 1,8,-1
EndSplineSet
Validated: 1
EndChar

StartChar: Ntilde
Encoding: 107 209 107
Width: 612
GlyphClass: 2
Flags: W
LayerCount: 2
Fore
SplineSet
90 41 m 1,0,-1
 90 663 l 1,1,-1
 129 702 l 1,2,-1
 161 671 l 1,3,-1
 161 665 l 1,4,-1
 199 702 l 1,5,-1
 230 671 l 1,6,-1
 451 52 l 1,7,-1
 451 663 l 1,8,-1
 490 702 l 1,9,-1
 521 671 l 1,10,-1
 521 49 l 1,11,-1
 482 10 l 1,12,-1
 451 41 l 1,13,-1
 451 48 l 1,14,-1
 413 10 l 1,15,-1
 381 41 l 1,16,-1
 161 657 l 1,17,-1
 161 49 l 1,18,-1
 121 10 l 1,19,-1
 90 41 l 1,0,-1
288 851 m 1,20,-1
 257 811 l 1,21,-1
 218 772 l 1,22,-1
 186 803 l 1,23,-1
 256 892 l 1,24,-1
 295 931 l 1,25,-1
 327 900 l 1,26,-1
 364 852 l 1,27,-1
 395 892 l 1,28,-1
 434 931 l 1,29,-1
 465 900 l 1,30,-1
 396 811 l 1,31,-1
 357 772 l 1,32,-1
 325 803 l 1,33,-1
 288 851 l 1,20,-1
EndSplineSet
Validated: 1
EndChar

StartChar: ydieresis
Encoding: 135 255 135
Width: 612
GlyphClass: 2
Flags: W
LayerCount: 2
Fore
SplineSet
358 633 m 1,0,-1
 358 722 l 1,1,-1
 397 761 l 1,2,-1
 428 730 l 1,3,-1
 428 641 l 1,4,-1
 389 602 l 1,5,-1
 358 633 l 1,0,-1
191 633 m 1,6,-1
 191 722 l 1,7,-1
 230 761 l 1,8,-1
 262 730 l 1,9,-1
 262 641 l 1,10,-1
 223 602 l 1,11,-1
 191 633 l 1,6,-1
304 209 m 1,12,-1
 462 496 l 1,13,-1
 501 535 l 1,14,-1
 533 504 l 1,15,-1
 205 -90 l 1,16,-1
 166 -129 l 1,17,-1
 108 -140 l 1,18,-1
 76 -109 l 1,19,-1
 115 -70 l 1,20,-1
 154 -62 l 1,21,-1
 265 140 l 1,22,-1
 265 140 l 1,23,-1
 76 496 l 1,24,-1
 115 535 l 1,25,-1
 147 504 l 1,26,-1
 304 209 l 1,12,-1
EndSplineSet
Validated: 5
EndChar

StartChar: scaron
Encoding: 139 353 139
Width: 612
GlyphClass: 2
Flags: W
LayerCount: 2
Fore
SplineSet
354 629 m 1,0,-1
 354 718 l 1,1,-1
 393 757 l 1,2,-1
 424 726 l 1,3,-1
 424 637 l 1,4,-1
 385 598 l 1,5,-1
 354 629 l 1,0,-1
187 629 m 1,6,-1
 187 718 l 1,7,-1
 226 757 l 1,8,-1
 258 726 l 1,9,-1
 258 637 l 1,10,-1
 219 598 l 1,11,-1
 187 629 l 1,6,-1
EndSplineSet
Validated: 1
EndChar

StartChar: Zcaron
Encoding: 140 381 140
Width: 612
GlyphClass: 2
Flags: W
LayerCount: 2
Fore
SplineSet
243 629 m 1,0,-1
 312 718 l 1,1,-1
 351 757 l 1,2,-1
 383 726 l 1,3,-1
 313 637 l 1,4,-1
 274 598 l 1,5,-1
 243 629 l 1,0,-1
EndSplineSet
Validated: 1
EndChar

StartChar: zcaron
Encoding: 141 382 141
Width: 612
GlyphClass: 2
Flags: W
LayerCount: 2
Fore
SplineSet
320 -8 m 1,0,-1
 332 -8 l 2,1,2
 340 -8 340 -8 347 -12 c 128,-1,3
 354 -16 354 -16 358.5 -23 c 128,-1,4
 363 -30 363 -30 364 -38 c 0,5,6
 364 -40 364 -40 364 -41 c 2,7,-1
 364 -63 l 2,8,9
 364 -73 364 -73 359 -81.5 c 128,-1,10
 354 -90 354 -90 345.5 -94.5 c 128,-1,11
 337 -99 337 -99 328 -99 c 2,12,-1
 300 -99 l 2,13,14
 286 -99 286 -99 275 -88 c 1,15,-1
 275 -66 l 1,16,-1
 303 -66 l 1,17,18
 308 -71 308 -71 314 -74 c 1,19,20
 320 -72 320 -72 326 -66 c 256,21,22
 332 -60 332 -60 334 -52 c 0,23,24
 332 -44 332 -44 326 -38 c 0,25,26
 322 -35 322 -35 318 -33 c 2,27,-1
 292 -33 l 1,28,-1
 292 -10 l 1,29,-1
 292 28 l 1,30,-1
 292 50 l 1,31,-1
 320 50 l 1,32,-1
 320 -8 l 1,0,-1
EndSplineSet
Validated: 1
EndChar

StartChar: uni02A0
Encoding: 142 672 142
Width: 414
GlyphClass: 2
Flags: W
LayerCount: 2
Fore
SplineSet
31 458 m 1,0,-1
 113 458 l 1,1,-1
 113 366 l 1,2,-1
 31 366 l 1,3,-1
 31 458 l 1,0,-1
EndSplineSet
Validated: 1
EndChar

StartChar: glyph44
Encoding: 143 8217 143
Width: 223
GlyphClass: 2
Flags: W
LayerCount: 2
Fore
SplineSet
99 687 m 1,0,-1
 66 687 l 1,1,-1
 35 718 l 1,2,-1
 74 757 l 1,3,-1
 157 757 l 1,4,-1
 188 726 l 1,5,-1
 119 610 l 1,6,-1
 80 570 l 1,7,-1
 48 602 l 1,8,-1
 99 687 l 1,0,-1
EndSplineSet
Validated: 1
EndChar

StartChar: glyph89
Encoding: 144 8220 144
Width: 612
GlyphClass: 2
Flags: W
LayerCount: 2
Fore
SplineSet
425 641 m 1,0,-1
 453 641 l 1,1,-1
 485 610 l 1,2,-1
 445 570 l 1,3,-1
 362 570 l 1,4,-1
 331 602 l 1,5,-1
 421 718 l 1,6,-1
 460 757 l 1,7,-1
 491 726 l 1,8,-1
 425 641 l 1,0,-1
215 641 m 1,9,-1
 243 641 l 1,10,-1
 275 610 l 1,11,-1
 235 570 l 1,12,-1
 152 570 l 1,13,-1
 121 602 l 1,14,-1
 211 718 l 1,15,-1
 250 757 l 1,16,-1
 281 726 l 1,17,-1
 215 641 l 1,9,-1
EndSplineSet
Validated: 1
EndChar

StartChar: glyph86
Encoding: 145 8221 145
Width: 612
GlyphClass: 2
Flags: W
LayerCount: 2
Fore
SplineSet
193 687 m 1,0,-1
 156 687 l 1,1,-1
 125 718 l 1,2,-1
 164 757 l 1,3,-1
 247 757 l 1,4,-1
 279 726 l 1,5,-1
 223 610 l 1,6,-1
 184 570 l 1,7,-1
 153 602 l 1,8,-1
 193 687 l 1,0,-1
394 687 m 1,9,-1
 364 687 l 1,10,-1
 333 718 l 1,11,-1
 372 757 l 1,12,-1
 455 757 l 1,13,-1
 487 726 l 1,14,-1
 403 610 l 1,15,-1
 364 570 l 1,16,-1
 333 602 l 1,17,-1
 394 687 l 1,9,-1
EndSplineSet
Validated: 1
EndChar

StartChar: quoteleft
Encoding: 146 8216 146
Width: 223
GlyphClass: 2
Flags: W
LayerCount: 2
Fore
SplineSet
124 640 m 1,0,-1
 157 640 l 1,1,-1
 188 609 l 1,2,-1
 149 570 l 1,3,-1
 66 570 l 1,4,-1
 35 601 l 1,5,-1
 104 717 l 1,6,-1
 143 757 l 1,7,-1
 175 725 l 1,8,-1
 124 640 l 1,0,-1
EndSplineSet
Validated: 1
EndChar
